<?xml version="1.0" encoding="UTF-8"?>
<svg width="177px" height="185px" viewBox="0 0 177 185" version="1.1" xmlns="http://www.w3.org/2000/svg" xmlns:xlink="http://www.w3.org/1999/xlink">
    <!-- Generator: Sketch 46.1 (44463) - http://www.bohemiancoding.com/sketch -->
    <title>cappuccino</title>
    <desc>Created with Sketch.</desc>
    <defs></defs>
    <g id="Page-1" stroke="none" stroke-width="1" fill="none" fill-rule="evenodd">
        <g id="Icons" transform="translate(-310.000000, -342.000000)">
            <g id="cappuccino" transform="translate(315.000000, 346.000000)">
                <g id="Group-5">
                    <g id="Cappuccino">
                        <g id="Cup" stroke-linecap="square" stroke="#FFFFFF">
                            <g>
                                <path d="M31.5,175.5 L136,175.5" id="Line-Copy-3" stroke-width="10"></path>
                                <path d="M0.5,1.5 L167,1.5" id="Line-Copy-4" stroke-width="10"></path>
                                <path d="M1,10 L30.0221508,174.458854" id="Line-Copy-2" stroke-width="10"></path>
                                <path d="M137,10 L166.022151,174.458854" id="Line-Copy-5" stroke-width="10" transform="translate(151.511075, 92.229427) scale(-1, 1) translate(-151.511075, -92.229427) "></path>
                            </g>
                        </g>
                        <g id="EspressoShot-Copy-4" opacity="0.5" transform="translate(21.000000, 135.000000)">
                            <path d="M5.5,5 L119.5,5" id="Line" stroke="#FFFFFF" stroke-width="10" stroke-linecap="square"></path>
                            <g id="Group-3" transform="translate(21.000000, 10.000000)" stroke="#FFFFFF" stroke-linecap="square">
                                <path d="M4,27.4286727 L31.4286727,0" id="Line-Copy-6" stroke-width="10"></path>
                                <path d="M0,27.4286727 L27.4286727,0" id="Line-Copy-7" stroke-width="11"></path>
                            </g>
                            <g id="Group-4" transform="translate(12.000000, 8.000000)" stroke="#FFFFFF" stroke-linecap="square">
                                <path d="M1,18.4286727 L18.5291778,0.899494937" id="Line-Copy-6" stroke-width="10"></path>
                                <path d="M0,15.4286727 L13.9936438,1.43502884" id="Line-Copy-7" stroke-width="11"></path>
                            </g>
                            <g id="Group-3-Copy" transform="translate(44.000000, 10.000000)" stroke="#FFFFFF" stroke-linecap="square">
                                <path d="M4,27.4286727 L31.4286727,0" id="Line-Copy-6" stroke-width="10"></path>
                                <path d="M0,27.4286727 L27.4286727,0" id="Line-Copy-7" stroke-width="11"></path>
                            </g>
                            <g id="Group-3-Copy-2" transform="translate(67.000000, 10.000000)" stroke="#FFFFFF" stroke-linecap="square">
                                <path d="M4,27.4286727 L31.4286727,0" id="Line-Copy-6" stroke-width="10"></path>
                                <path d="M0,27.4286727 L27.4286727,0" id="Line-Copy-7" stroke-width="11"></path>
                            </g>
                            <g id="Group-3-Copy-3" transform="translate(90.000000, 10.000000)" stroke="#FFFFFF" stroke-linecap="square">
                                <path d="M4,27.4286727 L27.8931388,3.53553391" id="Line-Copy-6" stroke-width="10"></path>
                                <path d="M0,27.4286727 L27.4286727,0" id="Line-Copy-7" stroke-width="11"></path>
                            </g>
                            <path d="M113,35.4286727 L114.727683,33.7009895" id="Line-Copy-8" stroke="#FFFFFF" stroke-width="8" stroke-linecap="square"></path>
                            <polygon id="Triangle" fill="#FFFFFF" transform="translate(8.502205, 9.713770) rotate(-46.000000) translate(-8.502205, -9.713770) " points="8.50220511 5.75594269 15.3184626 13.6715965 1.68594762 13.6715965"></polygon>
                        </g>
                        <path d="M149.308896,93.2664222 L141.798954,132 L24.069204,132 L15.7576278,94.2580189 L15.0631734,94.2631751 C12.842859,88.7274737 17.7838135,85.978571 29.8860369,86.016467 C48.0393719,86.073311 57.0517017,90.4865783 65.9668215,90.9203079 C74.8819413,91.3540375 106.131191,85.9635272 123.037685,86.016467 C134.308681,86.0517602 144.811744,88.4554482 154.546876,93.227531 L149.308896,93.2664222 Z" id="Combined-Shape" fill="#FFFFFF"></path>
                    </g>
                    <path d="M147.988804,86.2128818 C147.996205,86.1429339 148,86.0719101 148,86 C148,84.8954305 147.104569,84 146,84 C145.26348,84 144.619945,84.3981213 144.27286,84.9909015 C143.642478,84.8031114 143.009214,84.6242122 142.373067,84.4542038 C142.7591,84.0895793 143,83.5729223 143,83 C143,81.8954305 142.104569,81 141,81 C139.895431,81 139,81.8954305 139,83 C139,83.2336602 139.04007,83.4579616 139.113712,83.6664077 C137.091667,83.2285423 135.04137,82.8778073 132.962822,82.614203 C132.783041,81.6942399 131.972595,81 131,81 C130.167933,81 129.454542,81.5081158 129.153191,82.2309847 C127.319509,82.093848 125.464546,82.0223421 123.588303,82.016467 C123.310309,82.0155965 123.028436,82.0161978 122.742848,82.0182207 C122.399707,81.4103855 121.747779,81 121,81 C120.217157,81 119.539365,81.4497747 119.21094,82.1050073 C117.227664,82.1839513 115.120421,82.3122902 112.930976,82.4771925 C112.701124,81.626175 111.923687,81 111,81 C109.96231,81 109.1092,81.7902803 109.009696,82.8018143 C107.028387,82.9791642 105.003136,83.1786195 102.961666,83.3916636 C102.986813,83.2650067 103,83.1340433 103,83 C103,81.8954305 102.104569,81 101,81 C99.8954305,81 99,81.8954305 99,83 C99,83.2844498 99.0593823,83.5550302 99.1664264,83.8000205 C98.3069765,83.8949708 97.4476856,83.9913834 96.5905937,84.0886317 C96.4039239,84.0310189 96.2055843,84 96,84 C95.6333201,84 95.2896877,84.0986779 94.9942095,84.270927 C94.0607588,84.3781484 93.1314556,84.4859029 92.208968,84.593371 C92.6896424,84.2280957 93,83.6502918 93,83 C93,81.8954305 92.1045695,81 91,81 C89.8954305,81 89,81.8954305 89,83 C89,83.8162624 89.4889961,84.5183137 90.1900272,84.8291926 C89.3830059,84.9236262 88.582869,85.0173629 87.791471,85.109833 C87.46396,84.4519841 86.7847633,84 86,84 C85.0525327,84 84.2589437,84.6588314 84.0523669,85.5433602 C81.9255018,85.7871049 79.8907678,86.0136952 77.9890471,86.2105717 C77.996288,86.1413702 78,86.0711186 78,86 C78,84.8954305 77.1045695,84 76,84 C74.8954305,84 74,84.8954305 74,86 C74,86.2040215 74.0305491,86.4009079 74.0873224,86.5863345 C71.5737403,86.8057289 69.4206773,86.939091 67.7631328,86.944947 C67.9142669,86.6635435 68,86.3417838 68,86 C68,84.8954305 67.1045695,84 66,84 C64.8954305,84 64,84.8954305 64,86 C64,86.2523995 64.0467544,86.4938789 64.1320749,86.7162499 C62.1520221,86.4798039 60.1284012,86.0867261 57.9650284,85.6256722 C57.7897673,84.7000161 56.9766324,84 56,84 C55.32651,84 54.7307719,84.3328957 54.3683547,84.843118 C53.7288028,84.7041715 53.0749765,84.5636803 52.4049118,84.4234549 C52.772303,84.06082 53,83.5570008 53,83 C53,81.8954305 52.1045695,81 51,81 C49.8954305,81 49,81.8954305 49,83 C49,83.2762092 49.0559915,83.5393408 49.1572433,83.7786638 C47.2475269,83.4231048 45.2040664,83.088887 42.9910039,82.8090616 C42.894872,81.7940575 42.040167,81 41,81 C40.1064132,81 39.3497008,81.5860293 39.0932251,82.3947256 C37.1157253,82.2241938 35.0109965,82.1025853 32.7593516,82.0480463 C32.4208961,81.4238487 31.7599456,81 31,81 C30.2507109,81 29.5976601,81.412045 29.2550762,82.0219062 C26.8371594,82.0525031 24.7289523,82.2036231 22.930455,82.4752663 C22.6999502,81.6252304 21.9229903,81 21,81 C19.8954305,81 19,81.8954305 19,83 C19,83.1435787 19.0151295,83.2836237 19.0438813,83.4186278 C18.3079369,83.6923195 17.6749248,84.0060673 17.1448449,84.359871 C16.8205169,84.1330614 16.4257976,84 16,84 C15.9638347,84 15.9278936,84.0009599 15.8922008,84.0028556 L15.6476535,81.9690627 C15.7620349,81.9893926 15.8797787,82 16,82 C17.1045695,82 18,81.1045695 18,80 C18,78.8954305 17.1045695,78 16,78 C15.7120306,78 15.4382761,78.0608609 15.1908973,78.1704217 L14.8894723,75.6636017 C15.2071561,75.8760914 15.5891079,76 16,76 C17.1045695,76 18,75.1045695 18,74 C18,72.8954305 17.1045695,72 16,72 C15.41705,72 14.8923521,72.2494069 14.5267906,72.6473363 L12.9430318,59.4759076 C12.9802619,59.3233792 13,59.1639946 13,59 C13,58.6671489 12.9186897,58.3532889 12.7748483,58.0771992 L12.3426014,54.4823907 C12.7463842,54.1164614 13,53.5878483 13,53 C13,52.2404252 12.5765649,51.5797491 11.9528675,51.2411441 L11.6695797,48.885164 C12.4448526,48.6097856 13,47.8697236 13,47 C13,45.9641796 12.212565,45.1122745 11.2036513,45.0102409 L10.9618931,42.9996442 C10.9745669,42.9998811 10.9872696,43 11,43 C12.1045695,43 13,42.1045695 13,41 C13,39.8954305 12.1045695,39 11,39 C10.8233456,39 10.6520405,39.0229031 10.4888921,39.065902 L10.2215896,36.8428639 C10.460845,36.944048 10.7238884,37 11,37 C12.1045695,37 13,36.1045695 13,35 L19,35 C19,36.1045695 19.8954305,37 21,37 C22.1045695,37 23,36.1045695 23,35 L29,35 C29,36.1045695 29.8954305,37 31,37 C32.1045695,37 33,36.1045695 33,35 L39,35 C39,36.1045695 39.8954305,37 41,37 C42.1045695,37 43,36.1045695 43,35 L49,35 C49,36.1045695 49.8954305,37 51,37 C52.1045695,37 53,36.1045695 53,35 L59,35 C59,36.1045695 59.8954305,37 61,37 C62.1045695,37 63,36.1045695 63,35 L69,35 C69,36.1045695 69.8954305,37 71,37 C72.1045695,37 73,36.1045695 73,35 L79,35 C79,36.1045695 79.8954305,37 81,37 C82.1045695,37 83,36.1045695 83,35 L89,35 C89,36.1045695 89.8954305,37 91,37 C92.1045695,37 93,36.1045695 93,35 L99,35 C99,36.1045695 99.8954305,37 101,37 C102.104569,37 103,36.1045695 103,35 L109,35 C109,36.1045695 109.895431,37 111,37 C112.104569,37 113,36.1045695 113,35 L119,35 C119,36.1045695 119.895431,37 121,37 C122.104569,37 123,36.1045695 123,35 L129,35 C129,36.1045695 129.895431,37 131,37 C132.104569,37 133,36.1045695 133,35 L139,35 C139,36.1045695 139.895431,37 141,37 C142.104569,37 143,36.1045695 143,35 L149,35 C149,36.1045695 149.895431,37 151,37 C152.104569,37 153,36.1045695 153,35 L160.050462,35 L157.904829,49.3886254 C157.64649,48.5830839 156.891338,48 156,48 C154.895431,48 154,48.8954305 154,50 C154,51.1045695 154.895431,52 156,52 C156.681016,52 157.282533,51.6596227 157.643707,51.139711 L157.161736,54.3718135 C156.834264,54.1377393 156.433218,54 156,54 C154.895431,54 154,54.8954305 154,56 C154,57.1045695 154.895431,58 156,58 C156.222377,58 156.436278,57.9637066 156.636102,57.8967201 L156.318695,60.0252529 C156.214913,60.0086342 156.108465,60 156,60 C154.895431,60 154,60.8954305 154,62 C154,63.0125529 154.752456,63.8493602 155.728701,63.9817545 L155.414769,66.086985 C154.59573,66.337235 154,67.0990474 154,68 C154,68.6905185 154.349942,69.2993035 154.882157,69.6586852 L154.417097,72.7773788 C154.155604,73.1154322 154,73.5395444 154,74 C154,74.249476 154.045678,74.4882834 154.129126,74.7085152 L152.955533,82.578633 C152.762056,81.6764035 151.960019,81 151,81 C149.895431,81 149,81.8954305 149,83 C149,84.1045695 149.895431,85 151,85 C151.751203,85 152.405676,84.5858472 152.747543,83.9734163 L152.166146,87.8722666 C150.788603,87.2731777 149.396155,86.7200466 147.988804,86.2128818 Z M151.960576,89.2508222 L151.550618,92 L149.329509,92 L149.859514,89.2664222 L151.960576,89.2508222 Z M16,40 C17.1045695,40 18,39.1045695 18,38 C18,36.8954305 17.1045695,36 16,36 C14.8954305,36 14,36.8954305 14,38 C14,39.1045695 14.8954305,40 16,40 Z M26,40 C27.1045695,40 28,39.1045695 28,38 C28,36.8954305 27.1045695,36 26,36 C24.8954305,36 24,36.8954305 24,38 C24,39.1045695 24.8954305,40 26,40 Z M36,40 C37.1045695,40 38,39.1045695 38,38 C38,36.8954305 37.1045695,36 36,36 C34.8954305,36 34,36.8954305 34,38 C34,39.1045695 34.8954305,40 36,40 Z M46,40 C47.1045695,40 48,39.1045695 48,38 C48,36.8954305 47.1045695,36 46,36 C44.8954305,36 44,36.8954305 44,38 C44,39.1045695 44.8954305,40 46,40 Z M56,40 C57.1045695,40 58,39.1045695 58,38 C58,36.8954305 57.1045695,36 56,36 C54.8954305,36 54,36.8954305 54,38 C54,39.1045695 54.8954305,40 56,40 Z M66,40 C67.1045695,40 68,39.1045695 68,38 C68,36.8954305 67.1045695,36 66,36 C64.8954305,36 64,36.8954305 64,38 C64,39.1045695 64.8954305,40 66,40 Z M76,40 C77.1045695,40 78,39.1045695 78,38 C78,36.8954305 77.1045695,36 76,36 C74.8954305,36 74,36.8954305 74,38 C74,39.1045695 74.8954305,40 76,40 Z M86,40 C87.1045695,40 88,39.1045695 88,38 C88,36.8954305 87.1045695,36 86,36 C84.8954305,36 84,36.8954305 84,38 C84,39.1045695 84.8954305,40 86,40 Z M96,40 C97.1045695,40 98,39.1045695 98,38 C98,36.8954305 97.1045695,36 96,36 C94.8954305,36 94,36.8954305 94,38 C94,39.1045695 94.8954305,40 96,40 Z M106,40 C107.104569,40 108,39.1045695 108,38 C108,36.8954305 107.104569,36 106,36 C104.895431,36 104,36.8954305 104,38 C104,39.1045695 104.895431,40 106,40 Z M116,40 C117.104569,40 118,39.1045695 118,38 C118,36.8954305 117.104569,36 116,36 C114.895431,36 114,36.8954305 114,38 C114,39.1045695 114.895431,40 116,40 Z M126,40 C127.104569,40 128,39.1045695 128,38 C128,36.8954305 127.104569,36 126,36 C124.895431,36 124,36.8954305 124,38 C124,39.1045695 124.895431,40 126,40 Z M136,40 C137.104569,40 138,39.1045695 138,38 C138,36.8954305 137.104569,36 136,36 C134.895431,36 134,36.8954305 134,38 C134,39.1045695 134.895431,40 136,40 Z M146,40 C147.104569,40 148,39.1045695 148,38 C148,36.8954305 147.104569,36 146,36 C144.895431,36 144,36.8954305 144,38 C144,39.1045695 144.895431,40 146,40 Z M156,40 C157.104569,40 158,39.1045695 158,38 C158,36.8954305 157.104569,36 156,36 C154.895431,36 154,36.8954305 154,38 C154,39.1045695 154.895431,40 156,40 Z M21,43 C22.1045695,43 23,42.1045695 23,41 C23,39.8954305 22.1045695,39 21,39 C19.8954305,39 19,39.8954305 19,41 C19,42.1045695 19.8954305,43 21,43 Z M31,43 C32.1045695,43 33,42.1045695 33,41 C33,39.8954305 32.1045695,39 31,39 C29.8954305,39 29,39.8954305 29,41 C29,42.1045695 29.8954305,43 31,43 Z M41,43 C42.1045695,43 43,42.1045695 43,41 C43,39.8954305 42.1045695,39 41,39 C39.8954305,39 39,39.8954305 39,41 C39,42.1045695 39.8954305,43 41,43 Z M51,43 C52.1045695,43 53,42.1045695 53,41 C53,39.8954305 52.1045695,39 51,39 C49.8954305,39 49,39.8954305 49,41 C49,42.1045695 49.8954305,43 51,43 Z M61,43 C62.1045695,43 63,42.1045695 63,41 C63,39.8954305 62.1045695,39 61,39 C59.8954305,39 59,39.8954305 59,41 C59,42.1045695 59.8954305,43 61,43 Z M71,43 C72.1045695,43 73,42.1045695 73,41 C73,39.8954305 72.1045695,39 71,39 C69.8954305,39 69,39.8954305 69,41 C69,42.1045695 69.8954305,43 71,43 Z M81,43 C82.1045695,43 83,42.1045695 83,41 C83,39.8954305 82.1045695,39 81,39 C79.8954305,39 79,39.8954305 79,41 C79,42.1045695 79.8954305,43 81,43 Z M91,43 C92.1045695,43 93,42.1045695 93,41 C93,39.8954305 92.1045695,39 91,39 C89.8954305,39 89,39.8954305 89,41 C89,42.1045695 89.8954305,43 91,43 Z M101,43 C102.104569,43 103,42.1045695 103,41 C103,39.8954305 102.104569,39 101,39 C99.8954305,39 99,39.8954305 99,41 C99,42.1045695 99.8954305,43 101,43 Z M111,43 C112.104569,43 113,42.1045695 113,41 C113,39.8954305 112.104569,39 111,39 C109.895431,39 109,39.8954305 109,41 C109,42.1045695 109.895431,43 111,43 Z M121,43 C122.104569,43 123,42.1045695 123,41 C123,39.8954305 122.104569,39 121,39 C119.895431,39 119,39.8954305 119,41 C119,42.1045695 119.895431,43 121,43 Z M131,43 C132.104569,43 133,42.1045695 133,41 C133,39.8954305 132.104569,39 131,39 C129.895431,39 129,39.8954305 129,41 C129,42.1045695 129.895431,43 131,43 Z M141,43 C142.104569,43 143,42.1045695 143,41 C143,39.8954305 142.104569,39 141,39 C139.895431,39 139,39.8954305 139,41 C139,42.1045695 139.895431,43 141,43 Z M151,43 C152.104569,43 153,42.1045695 153,41 C153,39.8954305 152.104569,39 151,39 C149.895431,39 149,39.8954305 149,41 C149,42.1045695 149.895431,43 151,43 Z M16,46 C17.1045695,46 18,45.1045695 18,44 C18,42.8954305 17.1045695,42 16,42 C14.8954305,42 14,42.8954305 14,44 C14,45.1045695 14.8954305,46 16,46 Z M26,46 C27.1045695,46 28,45.1045695 28,44 C28,42.8954305 27.1045695,42 26,42 C24.8954305,42 24,42.8954305 24,44 C24,45.1045695 24.8954305,46 26,46 Z M36,46 C37.1045695,46 38,45.1045695 38,44 C38,42.8954305 37.1045695,42 36,42 C34.8954305,42 34,42.8954305 34,44 C34,45.1045695 34.8954305,46 36,46 Z M46,46 C47.1045695,46 48,45.1045695 48,44 C48,42.8954305 47.1045695,42 46,42 C44.8954305,42 44,42.8954305 44,44 C44,45.1045695 44.8954305,46 46,46 Z M56,46 C57.1045695,46 58,45.1045695 58,44 C58,42.8954305 57.1045695,42 56,42 C54.8954305,42 54,42.8954305 54,44 C54,45.1045695 54.8954305,46 56,46 Z M66,46 C67.1045695,46 68,45.1045695 68,44 C68,42.8954305 67.1045695,42 66,42 C64.8954305,42 64,42.8954305 64,44 C64,45.1045695 64.8954305,46 66,46 Z M76,46 C77.1045695,46 78,45.1045695 78,44 C78,42.8954305 77.1045695,42 76,42 C74.8954305,42 74,42.8954305 74,44 C74,45.1045695 74.8954305,46 76,46 Z M86,46 C87.1045695,46 88,45.1045695 88,44 C88,42.8954305 87.1045695,42 86,42 C84.8954305,42 84,42.8954305 84,44 C84,45.1045695 84.8954305,46 86,46 Z M96,46 C97.1045695,46 98,45.1045695 98,44 C98,42.8954305 97.1045695,42 96,42 C94.8954305,42 94,42.8954305 94,44 C94,45.1045695 94.8954305,46 96,46 Z M106,46 C107.104569,46 108,45.1045695 108,44 C108,42.8954305 107.104569,42 106,42 C104.895431,42 104,42.8954305 104,44 C104,45.1045695 104.895431,46 106,46 Z M116,46 C117.104569,46 118,45.1045695 118,44 C118,42.8954305 117.104569,42 116,42 C114.895431,42 114,42.8954305 114,44 C114,45.1045695 114.895431,46 116,46 Z M126,46 C127.104569,46 128,45.1045695 128,44 C128,42.8954305 127.104569,42 126,42 C124.895431,42 124,42.8954305 124,44 C124,45.1045695 124.895431,46 126,46 Z M136,46 C137.104569,46 138,45.1045695 138,44 C138,42.8954305 137.104569,42 136,42 C134.895431,42 134,42.8954305 134,44 C134,45.1045695 134.895431,46 136,46 Z M146,46 C147.104569,46 148,45.1045695 148,44 C148,42.8954305 147.104569,42 146,42 C144.895431,42 144,42.8954305 144,44 C144,45.1045695 144.895431,46 146,46 Z M156,46 C157.104569,46 158,45.1045695 158,44 C158,42.8954305 157.104569,42 156,42 C154.895431,42 154,42.8954305 154,44 C154,45.1045695 154.895431,46 156,46 Z M21,49 C22.1045695,49 23,48.1045695 23,47 C23,45.8954305 22.1045695,45 21,45 C19.8954305,45 19,45.8954305 19,47 C19,48.1045695 19.8954305,49 21,49 Z M31,49 C32.1045695,49 33,48.1045695 33,47 C33,45.8954305 32.1045695,45 31,45 C29.8954305,45 29,45.8954305 29,47 C29,48.1045695 29.8954305,49 31,49 Z M41,49 C42.1045695,49 43,48.1045695 43,47 C43,45.8954305 42.1045695,45 41,45 C39.8954305,45 39,45.8954305 39,47 C39,48.1045695 39.8954305,49 41,49 Z M51,49 C52.1045695,49 53,48.1045695 53,47 C53,45.8954305 52.1045695,45 51,45 C49.8954305,45 49,45.8954305 49,47 C49,48.1045695 49.8954305,49 51,49 Z M61,49 C62.1045695,49 63,48.1045695 63,47 C63,45.8954305 62.1045695,45 61,45 C59.8954305,45 59,45.8954305 59,47 C59,48.1045695 59.8954305,49 61,49 Z M71,49 C72.1045695,49 73,48.1045695 73,47 C73,45.8954305 72.1045695,45 71,45 C69.8954305,45 69,45.8954305 69,47 C69,48.1045695 69.8954305,49 71,49 Z M81,49 C82.1045695,49 83,48.1045695 83,47 C83,45.8954305 82.1045695,45 81,45 C79.8954305,45 79,45.8954305 79,47 C79,48.1045695 79.8954305,49 81,49 Z M91,49 C92.1045695,49 93,48.1045695 93,47 C93,45.8954305 92.1045695,45 91,45 C89.8954305,45 89,45.8954305 89,47 C89,48.1045695 89.8954305,49 91,49 Z M101,49 C102.104569,49 103,48.1045695 103,47 C103,45.8954305 102.104569,45 101,45 C99.8954305,45 99,45.8954305 99,47 C99,48.1045695 99.8954305,49 101,49 Z M111,49 C112.104569,49 113,48.1045695 113,47 C113,45.8954305 112.104569,45 111,45 C109.895431,45 109,45.8954305 109,47 C109,48.1045695 109.895431,49 111,49 Z M121,49 C122.104569,49 123,48.1045695 123,47 C123,45.8954305 122.104569,45 121,45 C119.895431,45 119,45.8954305 119,47 C119,48.1045695 119.895431,49 121,49 Z M131,49 C132.104569,49 133,48.1045695 133,47 C133,45.8954305 132.104569,45 131,45 C129.895431,45 129,45.8954305 129,47 C129,48.1045695 129.895431,49 131,49 Z M141,49 C142.104569,49 143,48.1045695 143,47 C143,45.8954305 142.104569,45 141,45 C139.895431,45 139,45.8954305 139,47 C139,48.1045695 139.895431,49 141,49 Z M151,49 C152.104569,49 153,48.1045695 153,47 C153,45.8954305 152.104569,45 151,45 C149.895431,45 149,45.8954305 149,47 C149,48.1045695 149.895431,49 151,49 Z M16,52 C17.1045695,52 18,51.1045695 18,50 C18,48.8954305 17.1045695,48 16,48 C14.8954305,48 14,48.8954305 14,50 C14,51.1045695 14.8954305,52 16,52 Z M26,52 C27.1045695,52 28,51.1045695 28,50 C28,48.8954305 27.1045695,48 26,48 C24.8954305,48 24,48.8954305 24,50 C24,51.1045695 24.8954305,52 26,52 Z M36,52 C37.1045695,52 38,51.1045695 38,50 C38,48.8954305 37.1045695,48 36,48 C34.8954305,48 34,48.8954305 34,50 C34,51.1045695 34.8954305,52 36,52 Z M46,52 C47.1045695,52 48,51.1045695 48,50 C48,48.8954305 47.1045695,48 46,48 C44.8954305,48 44,48.8954305 44,50 C44,51.1045695 44.8954305,52 46,52 Z M56,52 C57.1045695,52 58,51.1045695 58,50 C58,48.8954305 57.1045695,48 56,48 C54.8954305,48 54,48.8954305 54,50 C54,51.1045695 54.8954305,52 56,52 Z M66,52 C67.1045695,52 68,51.1045695 68,50 C68,48.8954305 67.1045695,48 66,48 C64.8954305,48 64,48.8954305 64,50 C64,51.1045695 64.8954305,52 66,52 Z M76,52 C77.1045695,52 78,51.1045695 78,50 C78,48.8954305 77.1045695,48 76,48 C74.8954305,48 74,48.8954305 74,50 C74,51.1045695 74.8954305,52 76,52 Z M86,52 C87.1045695,52 88,51.1045695 88,50 C88,48.8954305 87.1045695,48 86,48 C84.8954305,48 84,48.8954305 84,50 C84,51.1045695 84.8954305,52 86,52 Z M96,52 C97.1045695,52 98,51.1045695 98,50 C98,48.8954305 97.1045695,48 96,48 C94.8954305,48 94,48.8954305 94,50 C94,51.1045695 94.8954305,52 96,52 Z M106,52 C107.104569,52 108,51.1045695 108,50 C108,48.8954305 107.104569,48 106,48 C104.895431,48 104,48.8954305 104,50 C104,51.1045695 104.895431,52 106,52 Z M116,52 C117.104569,52 118,51.1045695 118,50 C118,48.8954305 117.104569,48 116,48 C114.895431,48 114,48.8954305 114,50 C114,51.1045695 114.895431,52 116,52 Z M126,52 C127.104569,52 128,51.1045695 128,50 C128,48.8954305 127.104569,48 126,48 C124.895431,48 124,48.8954305 124,50 C124,51.1045695 124.895431,52 126,52 Z M136,52 C137.104569,52 138,51.1045695 138,50 C138,48.8954305 137.104569,48 136,48 C134.895431,48 134,48.8954305 134,50 C134,51.1045695 134.895431,52 136,52 Z M146,52 C147.104569,52 148,51.1045695 148,50 C148,48.8954305 147.104569,48 146,48 C144.895431,48 144,48.8954305 144,50 C144,51.1045695 144.895431,52 146,52 Z M21,55 C22.1045695,55 23,54.1045695 23,53 C23,51.8954305 22.1045695,51 21,51 C19.8954305,51 19,51.8954305 19,53 C19,54.1045695 19.8954305,55 21,55 Z M31,55 C32.1045695,55 33,54.1045695 33,53 C33,51.8954305 32.1045695,51 31,51 C29.8954305,51 29,51.8954305 29,53 C29,54.1045695 29.8954305,55 31,55 Z M41,55 C42.1045695,55 43,54.1045695 43,53 C43,51.8954305 42.1045695,51 41,51 C39.8954305,51 39,51.8954305 39,53 C39,54.1045695 39.8954305,55 41,55 Z M51,55 C52.1045695,55 53,54.1045695 53,53 C53,51.8954305 52.1045695,51 51,51 C49.8954305,51 49,51.8954305 49,53 C49,54.1045695 49.8954305,55 51,55 Z M61,55 C62.1045695,55 63,54.1045695 63,53 C63,51.8954305 62.1045695,51 61,51 C59.8954305,51 59,51.8954305 59,53 C59,54.1045695 59.8954305,55 61,55 Z M71,55 C72.1045695,55 73,54.1045695 73,53 C73,51.8954305 72.1045695,51 71,51 C69.8954305,51 69,51.8954305 69,53 C69,54.1045695 69.8954305,55 71,55 Z M81,55 C82.1045695,55 83,54.1045695 83,53 C83,51.8954305 82.1045695,51 81,51 C79.8954305,51 79,51.8954305 79,53 C79,54.1045695 79.8954305,55 81,55 Z M91,55 C92.1045695,55 93,54.1045695 93,53 C93,51.8954305 92.1045695,51 91,51 C89.8954305,51 89,51.8954305 89,53 C89,54.1045695 89.8954305,55 91,55 Z M101,55 C102.104569,55 103,54.1045695 103,53 C103,51.8954305 102.104569,51 101,51 C99.8954305,51 99,51.8954305 99,53 C99,54.1045695 99.8954305,55 101,55 Z M111,55 C112.104569,55 113,54.1045695 113,53 C113,51.8954305 112.104569,51 111,51 C109.895431,51 109,51.8954305 109,53 C109,54.1045695 109.895431,55 111,55 Z M121,55 C122.104569,55 123,54.1045695 123,53 C123,51.8954305 122.104569,51 121,51 C119.895431,51 119,51.8954305 119,53 C119,54.1045695 119.895431,55 121,55 Z M131,55 C132.104569,55 133,54.1045695 133,53 C133,51.8954305 132.104569,51 131,51 C129.895431,51 129,51.8954305 129,53 C129,54.1045695 129.895431,55 131,55 Z M141,55 C142.104569,55 143,54.1045695 143,53 C143,51.8954305 142.104569,51 141,51 C139.895431,51 139,51.8954305 139,53 C139,54.1045695 139.895431,55 141,55 Z M151,55 C152.104569,55 153,54.1045695 153,53 C153,51.8954305 152.104569,51 151,51 C149.895431,51 149,51.8954305 149,53 C149,54.1045695 149.895431,55 151,55 Z M16,58 C17.1045695,58 18,57.1045695 18,56 C18,54.8954305 17.1045695,54 16,54 C14.8954305,54 14,54.8954305 14,56 C14,57.1045695 14.8954305,58 16,58 Z M26,58 C27.1045695,58 28,57.1045695 28,56 C28,54.8954305 27.1045695,54 26,54 C24.8954305,54 24,54.8954305 24,56 C24,57.1045695 24.8954305,58 26,58 Z M36,58 C37.1045695,58 38,57.1045695 38,56 C38,54.8954305 37.1045695,54 36,54 C34.8954305,54 34,54.8954305 34,56 C34,57.1045695 34.8954305,58 36,58 Z M46,58 C47.1045695,58 48,57.1045695 48,56 C48,54.8954305 47.1045695,54 46,54 C44.8954305,54 44,54.8954305 44,56 C44,57.1045695 44.8954305,58 46,58 Z M56,58 C57.1045695,58 58,57.1045695 58,56 C58,54.8954305 57.1045695,54 56,54 C54.8954305,54 54,54.8954305 54,56 C54,57.1045695 54.8954305,58 56,58 Z M66,58 C67.1045695,58 68,57.1045695 68,56 C68,54.8954305 67.1045695,54 66,54 C64.8954305,54 64,54.8954305 64,56 C64,57.1045695 64.8954305,58 66,58 Z M76,58 C77.1045695,58 78,57.1045695 78,56 C78,54.8954305 77.1045695,54 76,54 C74.8954305,54 74,54.8954305 74,56 C74,57.1045695 74.8954305,58 76,58 Z M86,58 C87.1045695,58 88,57.1045695 88,56 C88,54.8954305 87.1045695,54 86,54 C84.8954305,54 84,54.8954305 84,56 C84,57.1045695 84.8954305,58 86,58 Z M96,58 C97.1045695,58 98,57.1045695 98,56 C98,54.8954305 97.1045695,54 96,54 C94.8954305,54 94,54.8954305 94,56 C94,57.1045695 94.8954305,58 96,58 Z M106,58 C107.104569,58 108,57.1045695 108,56 C108,54.8954305 107.104569,54 106,54 C104.895431,54 104,54.8954305 104,56 C104,57.1045695 104.895431,58 106,58 Z M116,58 C117.104569,58 118,57.1045695 118,56 C118,54.8954305 117.104569,54 116,54 C114.895431,54 114,54.8954305 114,56 C114,57.1045695 114.895431,58 116,58 Z M126,58 C127.104569,58 128,57.1045695 128,56 C128,54.8954305 127.104569,54 126,54 C124.895431,54 124,54.8954305 124,56 C124,57.1045695 124.895431,58 126,58 Z M136,58 C137.104569,58 138,57.1045695 138,56 C138,54.8954305 137.104569,54 136,54 C134.895431,54 134,54.8954305 134,56 C134,57.1045695 134.895431,58 136,58 Z M146,58 C147.104569,58 148,57.1045695 148,56 C148,54.8954305 147.104569,54 146,54 C144.895431,54 144,54.8954305 144,56 C144,57.1045695 144.895431,58 146,58 Z M21,61 C22.1045695,61 23,60.1045695 23,59 C23,57.8954305 22.1045695,57 21,57 C19.8954305,57 19,57.8954305 19,59 C19,60.1045695 19.8954305,61 21,61 Z M31,61 C32.1045695,61 33,60.1045695 33,59 C33,57.8954305 32.1045695,57 31,57 C29.8954305,57 29,57.8954305 29,59 C29,60.1045695 29.8954305,61 31,61 Z M41,61 C42.1045695,61 43,60.1045695 43,59 C43,57.8954305 42.1045695,57 41,57 C39.8954305,57 39,57.8954305 39,59 C39,60.1045695 39.8954305,61 41,61 Z M51,61 C52.1045695,61 53,60.1045695 53,59 C53,57.8954305 52.1045695,57 51,57 C49.8954305,57 49,57.8954305 49,59 C49,60.1045695 49.8954305,61 51,61 Z M61,61 C62.1045695,61 63,60.1045695 63,59 C63,57.8954305 62.1045695,57 61,57 C59.8954305,57 59,57.8954305 59,59 C59,60.1045695 59.8954305,61 61,61 Z M71,61 C72.1045695,61 73,60.1045695 73,59 C73,57.8954305 72.1045695,57 71,57 C69.8954305,57 69,57.8954305 69,59 C69,60.1045695 69.8954305,61 71,61 Z M81,61 C82.1045695,61 83,60.1045695 83,59 C83,57.8954305 82.1045695,57 81,57 C79.8954305,57 79,57.8954305 79,59 C79,60.1045695 79.8954305,61 81,61 Z M91,61 C92.1045695,61 93,60.1045695 93,59 C93,57.8954305 92.1045695,57 91,57 C89.8954305,57 89,57.8954305 89,59 C89,60.1045695 89.8954305,61 91,61 Z M101,61 C102.104569,61 103,60.1045695 103,59 C103,57.8954305 102.104569,57 101,57 C99.8954305,57 99,57.8954305 99,59 C99,60.1045695 99.8954305,61 101,61 Z M111,61 C112.104569,61 113,60.1045695 113,59 C113,57.8954305 112.104569,57 111,57 C109.895431,57 109,57.8954305 109,59 C109,60.1045695 109.895431,61 111,61 Z M121,61 C122.104569,61 123,60.1045695 123,59 C123,57.8954305 122.104569,57 121,57 C119.895431,57 119,57.8954305 119,59 C119,60.1045695 119.895431,61 121,61 Z M131,61 C132.104569,61 133,60.1045695 133,59 C133,57.8954305 132.104569,57 131,57 C129.895431,57 129,57.8954305 129,59 C129,60.1045695 129.895431,61 131,61 Z M141,61 C142.104569,61 143,60.1045695 143,59 C143,57.8954305 142.104569,57 141,57 C139.895431,57 139,57.8954305 139,59 C139,60.1045695 139.895431,61 141,61 Z M151,61 C152.104569,61 153,60.1045695 153,59 C153,57.8954305 152.104569,57 151,57 C149.895431,57 149,57.8954305 149,59 C149,60.1045695 149.895431,61 151,61 Z M16,64 C17.1045695,64 18,63.1045695 18,62 C18,60.8954305 17.1045695,60 16,60 C14.8954305,60 14,60.8954305 14,62 C14,63.1045695 14.8954305,64 16,64 Z M26,64 C27.1045695,64 28,63.1045695 28,62 C28,60.8954305 27.1045695,60 26,60 C24.8954305,60 24,60.8954305 24,62 C24,63.1045695 24.8954305,64 26,64 Z M36,64 C37.1045695,64 38,63.1045695 38,62 C38,60.8954305 37.1045695,60 36,60 C34.8954305,60 34,60.8954305 34,62 C34,63.1045695 34.8954305,64 36,64 Z M46,64 C47.1045695,64 48,63.1045695 48,62 C48,60.8954305 47.1045695,60 46,60 C44.8954305,60 44,60.8954305 44,62 C44,63.1045695 44.8954305,64 46,64 Z M56,64 C57.1045695,64 58,63.1045695 58,62 C58,60.8954305 57.1045695,60 56,60 C54.8954305,60 54,60.8954305 54,62 C54,63.1045695 54.8954305,64 56,64 Z M66,64 C67.1045695,64 68,63.1045695 68,62 C68,60.8954305 67.1045695,60 66,60 C64.8954305,60 64,60.8954305 64,62 C64,63.1045695 64.8954305,64 66,64 Z M76,64 C77.1045695,64 78,63.1045695 78,62 C78,60.8954305 77.1045695,60 76,60 C74.8954305,60 74,60.8954305 74,62 C74,63.1045695 74.8954305,64 76,64 Z M86,64 C87.1045695,64 88,63.1045695 88,62 C88,60.8954305 87.1045695,60 86,60 C84.8954305,60 84,60.8954305 84,62 C84,63.1045695 84.8954305,64 86,64 Z M96,64 C97.1045695,64 98,63.1045695 98,62 C98,60.8954305 97.1045695,60 96,60 C94.8954305,60 94,60.8954305 94,62 C94,63.1045695 94.8954305,64 96,64 Z M106,64 C107.104569,64 108,63.1045695 108,62 C108,60.8954305 107.104569,60 106,60 C104.895431,60 104,60.8954305 104,62 C104,63.1045695 104.895431,64 106,64 Z M116,64 C117.104569,64 118,63.1045695 118,62 C118,60.8954305 117.104569,60 116,60 C114.895431,60 114,60.8954305 114,62 C114,63.1045695 114.895431,64 116,64 Z M126,64 C127.104569,64 128,63.1045695 128,62 C128,60.8954305 127.104569,60 126,60 C124.895431,60 124,60.8954305 124,62 C124,63.1045695 124.895431,64 126,64 Z M136,64 C137.104569,64 138,63.1045695 138,62 C138,60.8954305 137.104569,60 136,60 C134.895431,60 134,60.8954305 134,62 C134,63.1045695 134.895431,64 136,64 Z M146,64 C147.104569,64 148,63.1045695 148,62 C148,60.8954305 147.104569,60 146,60 C144.895431,60 144,60.8954305 144,62 C144,63.1045695 144.895431,64 146,64 Z M21,67 C22.1045695,67 23,66.1045695 23,65 C23,63.8954305 22.1045695,63 21,63 C19.8954305,63 19,63.8954305 19,65 C19,66.1045695 19.8954305,67 21,67 Z M31,67 C32.1045695,67 33,66.1045695 33,65 C33,63.8954305 32.1045695,63 31,63 C29.8954305,63 29,63.8954305 29,65 C29,66.1045695 29.8954305,67 31,67 Z M41,67 C42.1045695,67 43,66.1045695 43,65 C43,63.8954305 42.1045695,63 41,63 C39.8954305,63 39,63.8954305 39,65 C39,66.1045695 39.8954305,67 41,67 Z M51,67 C52.1045695,67 53,66.1045695 53,65 C53,63.8954305 52.1045695,63 51,63 C49.8954305,63 49,63.8954305 49,65 C49,66.1045695 49.8954305,67 51,67 Z M61,67 C62.1045695,67 63,66.1045695 63,65 C63,63.8954305 62.1045695,63 61,63 C59.8954305,63 59,63.8954305 59,65 C59,66.1045695 59.8954305,67 61,67 Z M71,67 C72.1045695,67 73,66.1045695 73,65 C73,63.8954305 72.1045695,63 71,63 C69.8954305,63 69,63.8954305 69,65 C69,66.1045695 69.8954305,67 71,67 Z M81,67 C82.1045695,67 83,66.1045695 83,65 C83,63.8954305 82.1045695,63 81,63 C79.8954305,63 79,63.8954305 79,65 C79,66.1045695 79.8954305,67 81,67 Z M91,67 C92.1045695,67 93,66.1045695 93,65 C93,63.8954305 92.1045695,63 91,63 C89.8954305,63 89,63.8954305 89,65 C89,66.1045695 89.8954305,67 91,67 Z M101,67 C102.104569,67 103,66.1045695 103,65 C103,63.8954305 102.104569,63 101,63 C99.8954305,63 99,63.8954305 99,65 C99,66.1045695 99.8954305,67 101,67 Z M111,67 C112.104569,67 113,66.1045695 113,65 C113,63.8954305 112.104569,63 111,63 C109.895431,63 109,63.8954305 109,65 C109,66.1045695 109.895431,67 111,67 Z M121,67 C122.104569,67 123,66.1045695 123,65 C123,63.8954305 122.104569,63 121,63 C119.895431,63 119,63.8954305 119,65 C119,66.1045695 119.895431,67 121,67 Z M131,67 C132.104569,67 133,66.1045695 133,65 C133,63.8954305 132.104569,63 131,63 C129.895431,63 129,63.8954305 129,65 C129,66.1045695 129.895431,67 131,67 Z M141,67 C142.104569,67 143,66.1045695 143,65 C143,63.8954305 142.104569,63 141,63 C139.895431,63 139,63.8954305 139,65 C139,66.1045695 139.895431,67 141,67 Z M151,67 C152.104569,67 153,66.1045695 153,65 C153,63.8954305 152.104569,63 151,63 C149.895431,63 149,63.8954305 149,65 C149,66.1045695 149.895431,67 151,67 Z M16,70 C17.1045695,70 18,69.1045695 18,68 C18,66.8954305 17.1045695,66 16,66 C14.8954305,66 14,66.8954305 14,68 C14,69.1045695 14.8954305,70 16,70 Z M26,70 C27.1045695,70 28,69.1045695 28,68 C28,66.8954305 27.1045695,66 26,66 C24.8954305,66 24,66.8954305 24,68 C24,69.1045695 24.8954305,70 26,70 Z M36,70 C37.1045695,70 38,69.1045695 38,68 C38,66.8954305 37.1045695,66 36,66 C34.8954305,66 34,66.8954305 34,68 C34,69.1045695 34.8954305,70 36,70 Z M46,70 C47.1045695,70 48,69.1045695 48,68 C48,66.8954305 47.1045695,66 46,66 C44.8954305,66 44,66.8954305 44,68 C44,69.1045695 44.8954305,70 46,70 Z M56,70 C57.1045695,70 58,69.1045695 58,68 C58,66.8954305 57.1045695,66 56,66 C54.8954305,66 54,66.8954305 54,68 C54,69.1045695 54.8954305,70 56,70 Z M66,70 C67.1045695,70 68,69.1045695 68,68 C68,66.8954305 67.1045695,66 66,66 C64.8954305,66 64,66.8954305 64,68 C64,69.1045695 64.8954305,70 66,70 Z M76,70 C77.1045695,70 78,69.1045695 78,68 C78,66.8954305 77.1045695,66 76,66 C74.8954305,66 74,66.8954305 74,68 C74,69.1045695 74.8954305,70 76,70 Z M86,70 C87.1045695,70 88,69.1045695 88,68 C88,66.8954305 87.1045695,66 86,66 C84.8954305,66 84,66.8954305 84,68 C84,69.1045695 84.8954305,70 86,70 Z M96,70 C97.1045695,70 98,69.1045695 98,68 C98,66.8954305 97.1045695,66 96,66 C94.8954305,66 94,66.8954305 94,68 C94,69.1045695 94.8954305,70 96,70 Z M106,70 C107.104569,70 108,69.1045695 108,68 C108,66.8954305 107.104569,66 106,66 C104.895431,66 104,66.8954305 104,68 C104,69.1045695 104.895431,70 106,70 Z M116,70 C117.104569,70 118,69.1045695 118,68 C118,66.8954305 117.104569,66 116,66 C114.895431,66 114,66.8954305 114,68 C114,69.1045695 114.895431,70 116,70 Z M126,70 C127.104569,70 128,69.1045695 128,68 C128,66.8954305 127.104569,66 126,66 C124.895431,66 124,66.8954305 124,68 C124,69.1045695 124.895431,70 126,70 Z M136,70 C137.104569,70 138,69.1045695 138,68 C138,66.8954305 137.104569,66 136,66 C134.895431,66 134,66.8954305 134,68 C134,69.1045695 134.895431,70 136,70 Z M146,70 C147.104569,70 148,69.1045695 148,68 C148,66.8954305 147.104569,66 146,66 C144.895431,66 144,66.8954305 144,68 C144,69.1045695 144.895431,70 146,70 Z M21,73 C22.1045695,73 23,72.1045695 23,71 C23,69.8954305 22.1045695,69 21,69 C19.8954305,69 19,69.8954305 19,71 C19,72.1045695 19.8954305,73 21,73 Z M31,73 C32.1045695,73 33,72.1045695 33,71 C33,69.8954305 32.1045695,69 31,69 C29.8954305,69 29,69.8954305 29,71 C29,72.1045695 29.8954305,73 31,73 Z M41,73 C42.1045695,73 43,72.1045695 43,71 C43,69.8954305 42.1045695,69 41,69 C39.8954305,69 39,69.8954305 39,71 C39,72.1045695 39.8954305,73 41,73 Z M51,73 C52.1045695,73 53,72.1045695 53,71 C53,69.8954305 52.1045695,69 51,69 C49.8954305,69 49,69.8954305 49,71 C49,72.1045695 49.8954305,73 51,73 Z M61,73 C62.1045695,73 63,72.1045695 63,71 C63,69.8954305 62.1045695,69 61,69 C59.8954305,69 59,69.8954305 59,71 C59,72.1045695 59.8954305,73 61,73 Z M71,73 C72.1045695,73 73,72.1045695 73,71 C73,69.8954305 72.1045695,69 71,69 C69.8954305,69 69,69.8954305 69,71 C69,72.1045695 69.8954305,73 71,73 Z M81,73 C82.1045695,73 83,72.1045695 83,71 C83,69.8954305 82.1045695,69 81,69 C79.8954305,69 79,69.8954305 79,71 C79,72.1045695 79.8954305,73 81,73 Z M91,73 C92.1045695,73 93,72.1045695 93,71 C93,69.8954305 92.1045695,69 91,69 C89.8954305,69 89,69.8954305 89,71 C89,72.1045695 89.8954305,73 91,73 Z M101,73 C102.104569,73 103,72.1045695 103,71 C103,69.8954305 102.104569,69 101,69 C99.8954305,69 99,69.8954305 99,71 C99,72.1045695 99.8954305,73 101,73 Z M111,73 C112.104569,73 113,72.1045695 113,71 C113,69.8954305 112.104569,69 111,69 C109.895431,69 109,69.8954305 109,71 C109,72.1045695 109.895431,73 111,73 Z M121,73 C122.104569,73 123,72.1045695 123,71 C123,69.8954305 122.104569,69 121,69 C119.895431,69 119,69.8954305 119,71 C119,72.1045695 119.895431,73 121,73 Z M131,73 C132.104569,73 133,72.1045695 133,71 C133,69.8954305 132.104569,69 131,69 C129.895431,69 129,69.8954305 129,71 C129,72.1045695 129.895431,73 131,73 Z M141,73 C142.104569,73 143,72.1045695 143,71 C143,69.8954305 142.104569,69 141,69 C139.895431,69 139,69.8954305 139,71 C139,72.1045695 139.895431,73 141,73 Z M151,73 C152.104569,73 153,72.1045695 153,71 C153,69.8954305 152.104569,69 151,69 C149.895431,69 149,69.8954305 149,71 C149,72.1045695 149.895431,73 151,73 Z M26,76 C27.1045695,76 28,75.1045695 28,74 C28,72.8954305 27.1045695,72 26,72 C24.8954305,72 24,72.8954305 24,74 C24,75.1045695 24.8954305,76 26,76 Z M36,76 C37.1045695,76 38,75.1045695 38,74 C38,72.8954305 37.1045695,72 36,72 C34.8954305,72 34,72.8954305 34,74 C34,75.1045695 34.8954305,76 36,76 Z M46,76 C47.1045695,76 48,75.1045695 48,74 C48,72.8954305 47.1045695,72 46,72 C44.8954305,72 44,72.8954305 44,74 C44,75.1045695 44.8954305,76 46,76 Z M56,76 C57.1045695,76 58,75.1045695 58,74 C58,72.8954305 57.1045695,72 56,72 C54.8954305,72 54,72.8954305 54,74 C54,75.1045695 54.8954305,76 56,76 Z M66,76 C67.1045695,76 68,75.1045695 68,74 C68,72.8954305 67.1045695,72 66,72 C64.8954305,72 64,72.8954305 64,74 C64,75.1045695 64.8954305,76 66,76 Z M76,76 C77.1045695,76 78,75.1045695 78,74 C78,72.8954305 77.1045695,72 76,72 C74.8954305,72 74,72.8954305 74,74 C74,75.1045695 74.8954305,76 76,76 Z M86,76 C87.1045695,76 88,75.1045695 88,74 C88,72.8954305 87.1045695,72 86,72 C84.8954305,72 84,72.8954305 84,74 C84,75.1045695 84.8954305,76 86,76 Z M96,76 C97.1045695,76 98,75.1045695 98,74 C98,72.8954305 97.1045695,72 96,72 C94.8954305,72 94,72.8954305 94,74 C94,75.1045695 94.8954305,76 96,76 Z M106,76 C107.104569,76 108,75.1045695 108,74 C108,72.8954305 107.104569,72 106,72 C104.895431,72 104,72.8954305 104,74 C104,75.1045695 104.895431,76 106,76 Z M116,76 C117.104569,76 118,75.1045695 118,74 C118,72.8954305 117.104569,72 116,72 C114.895431,72 114,72.8954305 114,74 C114,75.1045695 114.895431,76 116,76 Z M126,76 C127.104569,76 128,75.1045695 128,74 C128,72.8954305 127.104569,72 126,72 C124.895431,72 124,72.8954305 124,74 C124,75.1045695 124.895431,76 126,76 Z M136,76 C137.104569,76 138,75.1045695 138,74 C138,72.8954305 137.104569,72 136,72 C134.895431,72 134,72.8954305 134,74 C134,75.1045695 134.895431,76 136,76 Z M146,76 C147.104569,76 148,75.1045695 148,74 C148,72.8954305 147.104569,72 146,72 C144.895431,72 144,72.8954305 144,74 C144,75.1045695 144.895431,76 146,76 Z M21,79 C22.1045695,79 23,78.1045695 23,77 C23,75.8954305 22.1045695,75 21,75 C19.8954305,75 19,75.8954305 19,77 C19,78.1045695 19.8954305,79 21,79 Z M31,79 C32.1045695,79 33,78.1045695 33,77 C33,75.8954305 32.1045695,75 31,75 C29.8954305,75 29,75.8954305 29,77 C29,78.1045695 29.8954305,79 31,79 Z M41,79 C42.1045695,79 43,78.1045695 43,77 C43,75.8954305 42.1045695,75 41,75 C39.8954305,75 39,75.8954305 39,77 C39,78.1045695 39.8954305,79 41,79 Z M51,79 C52.1045695,79 53,78.1045695 53,77 C53,75.8954305 52.1045695,75 51,75 C49.8954305,75 49,75.8954305 49,77 C49,78.1045695 49.8954305,79 51,79 Z M61,79 C62.1045695,79 63,78.1045695 63,77 C63,75.8954305 62.1045695,75 61,75 C59.8954305,75 59,75.8954305 59,77 C59,78.1045695 59.8954305,79 61,79 Z M71,79 C72.1045695,79 73,78.1045695 73,77 C73,75.8954305 72.1045695,75 71,75 C69.8954305,75 69,75.8954305 69,77 C69,78.1045695 69.8954305,79 71,79 Z M81,79 C82.1045695,79 83,78.1045695 83,77 C83,75.8954305 82.1045695,75 81,75 C79.8954305,75 79,75.8954305 79,77 C79,78.1045695 79.8954305,79 81,79 Z M91,79 C92.1045695,79 93,78.1045695 93,77 C93,75.8954305 92.1045695,75 91,75 C89.8954305,75 89,75.8954305 89,77 C89,78.1045695 89.8954305,79 91,79 Z M101,79 C102.104569,79 103,78.1045695 103,77 C103,75.8954305 102.104569,75 101,75 C99.8954305,75 99,75.8954305 99,77 C99,78.1045695 99.8954305,79 101,79 Z M111,79 C112.104569,79 113,78.1045695 113,77 C113,75.8954305 112.104569,75 111,75 C109.895431,75 109,75.8954305 109,77 C109,78.1045695 109.895431,79 111,79 Z M121,79 C122.104569,79 123,78.1045695 123,77 C123,75.8954305 122.104569,75 121,75 C119.895431,75 119,75.8954305 119,77 C119,78.1045695 119.895431,79 121,79 Z M131,79 C132.104569,79 133,78.1045695 133,77 C133,75.8954305 132.104569,75 131,75 C129.895431,75 129,75.8954305 129,77 C129,78.1045695 129.895431,79 131,79 Z M141,79 C142.104569,79 143,78.1045695 143,77 C143,75.8954305 142.104569,75 141,75 C139.895431,75 139,75.8954305 139,77 C139,78.1045695 139.895431,79 141,79 Z M151,79 C152.104569,79 153,78.1045695 153,77 C153,75.8954305 152.104569,75 151,75 C149.895431,75 149,75.8954305 149,77 C149,78.1045695 149.895431,79 151,79 Z M26,82 C27.1045695,82 28,81.1045695 28,80 C28,78.8954305 27.1045695,78 26,78 C24.8954305,78 24,78.8954305 24,80 C24,81.1045695 24.8954305,82 26,82 Z M36,82 C37.1045695,82 38,81.1045695 38,80 C38,78.8954305 37.1045695,78 36,78 C34.8954305,78 34,78.8954305 34,80 C34,81.1045695 34.8954305,82 36,82 Z M46,82 C47.1045695,82 48,81.1045695 48,80 C48,78.8954305 47.1045695,78 46,78 C44.8954305,78 44,78.8954305 44,80 C44,81.1045695 44.8954305,82 46,82 Z M56,82 C57.1045695,82 58,81.1045695 58,80 C58,78.8954305 57.1045695,78 56,78 C54.8954305,78 54,78.8954305 54,80 C54,81.1045695 54.8954305,82 56,82 Z M66,82 C67.1045695,82 68,81.1045695 68,80 C68,78.8954305 67.1045695,78 66,78 C64.8954305,78 64,78.8954305 64,80 C64,81.1045695 64.8954305,82 66,82 Z M76,82 C77.1045695,82 78,81.1045695 78,80 C78,78.8954305 77.1045695,78 76,78 C74.8954305,78 74,78.8954305 74,80 C74,81.1045695 74.8954305,82 76,82 Z M86,82 C87.1045695,82 88,81.1045695 88,80 C88,78.8954305 87.1045695,78 86,78 C84.8954305,78 84,78.8954305 84,80 C84,81.1045695 84.8954305,82 86,82 Z M96,82 C97.1045695,82 98,81.1045695 98,80 C98,78.8954305 97.1045695,78 96,78 C94.8954305,78 94,78.8954305 94,80 C94,81.1045695 94.8954305,82 96,82 Z M106,82 C107.104569,82 108,81.1045695 108,80 C108,78.8954305 107.104569,78 106,78 C104.895431,78 104,78.8954305 104,80 C104,81.1045695 104.895431,82 106,82 Z M116,82 C117.104569,82 118,81.1045695 118,80 C118,78.8954305 117.104569,78 116,78 C114.895431,78 114,78.8954305 114,80 C114,81.1045695 114.895431,82 116,82 Z M126,82 C127.104569,82 128,81.1045695 128,80 C128,78.8954305 127.104569,78 126,78 C124.895431,78 124,78.8954305 124,80 C124,81.1045695 124.895431,82 126,82 Z M136,82 C137.104569,82 138,81.1045695 138,80 C138,78.8954305 137.104569,78 136,78 C134.895431,78 134,78.8954305 134,80 C134,81.1045695 134.895431,82 136,82 Z M146,82 C147.104569,82 148,81.1045695 148,80 C148,78.8954305 147.104569,78 146,78 C144.895431,78 144,78.8954305 144,80 C144,81.1045695 144.895431,82 146,82 Z M61,85 C62.1045695,85 63,84.1045695 63,83 C63,81.8954305 62.1045695,81 61,81 C59.8954305,81 59,81.8954305 59,83 C59,84.1045695 59.8954305,85 61,85 Z M71,85 C72.1045695,85 73,84.1045695 73,83 C73,81.8954305 72.1045695,81 71,81 C69.8954305,81 69,81.8954305 69,83 C69,84.1045695 69.8954305,85 71,85 Z M81,85 C82.1045695,85 83,84.1045695 83,83 C83,81.8954305 82.1045695,81 81,81 C79.8954305,81 79,81.8954305 79,83 C79,84.1045695 79.8954305,85 81,85 Z" id="Combined-Shape" fill="#FFFFFF"></path>
                </g>
            </g>
        </g>
    </g>
</svg>