<?xml version="1.0" encoding="UTF-8"?>
<svg width="177px" height="185px" viewBox="0 0 177 185" version="1.1" xmlns="http://www.w3.org/2000/svg" xmlns:xlink="http://www.w3.org/1999/xlink">
    <!-- Generator: Sketch 46.1 (44463) - http://www.bohemiancoding.com/sketch -->
    <title>latte</title>
    <desc>Created with Sketch.</desc>
    <defs>
        <rect id="path-1" x="0" y="0" width="186" height="30"></rect>
    </defs>
    <g id="Page-1" stroke="none" stroke-width="1" fill="none" fill-rule="evenodd">
        <g id="Icons" transform="translate(-5.000000, -342.000000)">
            <g id="latte" transform="translate(0.000000, 346.000000)">
                <g id="Cup" transform="translate(10.000000, 0.000000)" stroke-linecap="square" stroke="#FFFFFF">
                    <g>
                        <path d="M31.5,175.5 L136,175.5" id="Line-Copy-3" stroke-width="10"></path>
                        <path d="M0.5,1.5 L167,1.5" id="Line-Copy-4" stroke-width="10"></path>
                        <path d="M1,10 L30.0221508,174.458854" id="Line-Copy-2" stroke-width="10"></path>
                        <path d="M137,10 L166.022151,174.458854" id="Line-Copy-5" stroke-width="10" transform="translate(151.511075, 92.229427) scale(-1, 1) translate(-151.511075, -92.229427) "></path>
                    </g>
                </g>
                <g id="EspressoShot-Copy-5" opacity="0.5" transform="translate(30.000000, 135.000000)">
                    <path d="M5.5,5 L119.5,5" id="Line" stroke="#FFFFFF" stroke-width="10" stroke-linecap="square"></path>
                    <g id="Group-3" transform="translate(21.000000, 10.000000)" stroke="#FFFFFF" stroke-linecap="square">
                        <path d="M4,27.4286727 L31.4286727,0" id="Line-Copy-6" stroke-width="10"></path>
                        <path d="M0,27.4286727 L27.4286727,0" id="Line-Copy-7" stroke-width="11"></path>
                    </g>
                    <g id="Group-4" transform="translate(12.000000, 8.000000)" stroke="#FFFFFF" stroke-linecap="square">
                        <path d="M1,18.4286727 L18.5291778,0.899494937" id="Line-Copy-6" stroke-width="10"></path>
                        <path d="M0,15.4286727 L13.9936438,1.43502884" id="Line-Copy-7" stroke-width="11"></path>
                    </g>
                    <g id="Group-3-Copy" transform="translate(44.000000, 10.000000)" stroke="#FFFFFF" stroke-linecap="square">
                        <path d="M4,27.4286727 L31.4286727,0" id="Line-Copy-6" stroke-width="10"></path>
                        <path d="M0,27.4286727 L27.4286727,0" id="Line-Copy-7" stroke-width="11"></path>
                    </g>
                    <g id="Group-3-Copy-2" transform="translate(67.000000, 10.000000)" stroke="#FFFFFF" stroke-linecap="square">
                        <path d="M4,27.4286727 L31.4286727,0" id="Line-Copy-6" stroke-width="10"></path>
                        <path d="M0,27.4286727 L27.4286727,0" id="Line-Copy-7" stroke-width="11"></path>
                    </g>
                    <g id="Group-3-Copy-3" transform="translate(90.000000, 10.000000)" stroke="#FFFFFF" stroke-linecap="square">
                        <path d="M4,27.4286727 L27.8931388,3.53553391" id="Line-Copy-6" stroke-width="10"></path>
                        <path d="M0,27.4286727 L27.4286727,0" id="Line-Copy-7" stroke-width="11"></path>
                    </g>
                    <path d="M113,35.4286727 L114.727683,33.7009895" id="Line-Copy-8" stroke="#FFFFFF" stroke-width="8" stroke-linecap="square"></path>
                    <polygon id="Triangle" fill="#FFFFFF" transform="translate(8.502205, 9.713770) rotate(-46.000000) translate(-8.502205, -9.713770) " points="8.50220511 5.75594269 15.3184626 13.6715965 1.68594762 13.6715965"></polygon>
                </g>
                <path d="M163.122721,62.7888116 L165.347997,62.8316804 L151.252078,131.98392 L33.5223284,131.98392 L25.2731309,64.2414762 L24.5162977,64.2470956 C22.2959834,58.7113941 27.2369379,55.9624914 39.3391612,56.0003875 C57.4924962,56.0572315 66.5048261,60.4704987 75.4199459,60.9042283 C84.3350657,61.337958 115.584316,55.9474477 132.490809,56.0003875 C143.424043,56.034623 153.63468,58.297431 163.122721,62.7888116 Z" id="Combined-Shape-Copy-4" fill="#FFFFFF"></path>
                <g id="Combined-Shape-Copy-6" transform="translate(0.000000, 36.000000)">
                    <mask id="mask-2" fill="white">
                        <use xlink:href="#path-1"></use>
                    </mask>
                    <g id="Mask" opacity="0.200000003"></g>
                    <path d="M159.927777,26.9881673 L159.925407,27 L162.219782,27 L162.643262,24.2508222 L162.071661,24.2549307 C162.167206,24.4851992 162.219782,24.7366558 162.219782,25 C162.219782,26.1045695 161.294815,27 160.15381,27 C160.077427,27 160.002011,26.9959871 159.927777,26.9881673 L159.927777,26.9881673 Z M156.33437,20.4822477 C155.972885,20.1816518 155.502796,20 154.988881,20 C154.915416,20 154.842847,20.0037121 154.771362,20.0109531 C153.812588,19.7334351 152.847354,19.4752041 151.87566,19.2362601 C151.88508,19.1587754 151.889924,19.0799353 151.889924,19 C151.889924,17.8954305 150.964957,17 149.823952,17 C148.911766,17 148.137657,17.5723 147.863861,18.3662318 C146.994437,18.2024782 146.120024,18.0536202 145.240622,17.9196578 C146.098469,17.6764886 146.724995,16.9090744 146.724995,16 C146.724995,14.8954305 145.800028,14 144.659023,14 C143.518018,14 142.593051,14.8954305 142.593051,16 C142.593051,16.7040808 142.968876,17.3231861 143.536917,17.679571 C142.590578,17.5569348 141.638544,17.451299 140.680817,17.3626636 C140.345017,17.134154 139.935739,17 139.494094,17 C139.173108,17 138.869219,17.0708645 138.598211,17.1973142 C137.761597,17.1418005 136.920711,17.0990396 136.075554,17.0690314 C136.277952,16.7598154 136.395136,16.3931556 136.395136,16 C136.395136,14.8954305 135.470169,14 134.329165,14 C133.18816,14 132.263193,14.8954305 132.263193,16 C132.263193,16.3715989 132.367879,16.7195278 132.550259,17.0176559 C131.641784,17.0230214 130.696568,17.0419874 129.719566,17.0730797 C129.542863,17.0254565 129.35662,17 129.164236,17 C128.91711,17 128.680118,17.0420042 128.460464,17.11904 C127.531927,17.1570931 126.577953,17.2050021 125.602475,17.2615973 C125.89182,16.9174397 126.065278,16.4783297 126.065278,16 C126.065278,14.8954305 125.140311,14 123.999307,14 C122.858302,14 121.933335,14.8954305 121.933335,16 C121.933335,16.5751331 122.184106,17.0935658 122.585571,17.4584182 C121.845545,17.5116072 121.096197,17.5687866 120.339052,17.6295028 C119.962263,17.2419694 119.42751,17 118.834377,17 C118.110855,17 117.4742,17.3600488 117.105171,17.9051605 C114.942071,18.0996074 112.73504,18.3165821 110.517095,18.5462652 C110.3048,17.6602743 109.484311,17 108.504519,17 C107.370351,17 106.44964,17.8847319 106.438647,18.9801671 C104.313087,19.2115657 102.196061,19.4491092 100.11659,19.6841663 C100.196852,19.4707214 100.240633,19.2403102 100.240633,19 C100.240633,17.8954305 99.3156656,17 98.174661,17 C97.0336563,17 96.1086893,17.8954305 96.1086893,19 C96.1086893,19.4061583 96.2337529,19.7840391 96.448634,20.0995221 C95.6856995,20.1858364 94.9305525,20.2710678 94.1847465,20.3547544 C93.851161,20.1310616 93.4462568,20 93.0097318,20 C92.4034772,20 91.8582134,20.2527943 91.4802828,20.6554363 C89.052665,20.9222605 86.7527608,21.1651015 84.6399847,21.366289 C84.3662056,20.5723275 83.5920814,20 82.6798736,20 C81.6401243,20 80.7797706,20.7435571 80.6352594,21.7113547 C78.0569744,21.9039071 75.9282555,21.9904528 74.4144376,21.9218202 C74.3720186,20.8534866 73.463976,20 72.3500154,20 C71.3847554,20 70.5741073,20.6408343 70.3472852,21.5069948 C69.3753813,21.3616037 68.3880573,21.1867853 67.3750986,20.991654 C68.4270375,20.8987952 69.2510579,20.0425549 69.2510579,19 C69.2510579,17.8954305 68.3260909,17 67.1850863,17 C66.0440817,17 65.1191146,17.8954305 65.1191146,19 C65.1191146,19.7601292 65.5571559,20.4212154 66.2021989,20.7595968 C63.946107,20.3028901 61.5494064,19.766064 58.9060065,19.2437831 C58.9160368,19.1638803 58.9211997,19.0825238 58.9211997,19 C58.9211997,17.8954305 57.9962327,17 56.8552281,17 C55.8919625,17 55.0826706,17.6381888 54.8539113,18.5016286 C53.7705242,18.3207675 52.6457496,18.1483217 51.4741076,17.989181 C51.545163,17.9963337 51.6172887,18 51.690299,18 C52.8313036,18 53.7562706,17.1045695 53.7562706,16 C53.7562706,14.8954305 52.8313036,14 51.690299,14 C50.5492943,14 49.6243273,14.8954305 49.6243273,16 C49.6243273,16.9857416 50.360986,17.8049215 51.3304396,17.9697656 C50.2521915,17.8247916 49.1343203,17.6911807 47.9725962,17.572707 C47.5998559,17.2184721 47.0889679,17 46.5253698,17 C46.0984437,17 45.701763,17.125361 45.3724641,17.3401326 C44.6083751,17.2813038 43.8261078,17.2294005 43.0246423,17.1853327 C43.2771742,16.8536168 43.4264124,16.4436801 43.4264124,16 C43.4264124,14.8954305 42.5014454,14 41.3604407,14 C40.2194361,14 39.2944691,14.8954305 39.2944691,16 C39.2944691,16.3852191 39.4069699,16.7450013 39.6019007,17.0502358 C38.790323,17.0305566 37.9602373,17.019042 37.1107751,17.016467 C36.8936895,17.0158089 36.6788345,17.0159912 36.4662102,17.0170138 C36.3776201,17.0057902 36.2872643,17 36.1955116,17 C36.0912006,17 35.9886951,17.0074837 35.8885368,17.0219268 C34.7723624,17.0356251 33.7200866,17.0733955 32.7317095,17.1352379 C32.9617988,16.8127358 33.0965542,16.4216023 33.0965542,16 C33.0965542,14.8954305 32.1715871,14 31.0305825,14 C29.8895779,14 28.9646109,14.8954305 28.9646109,16 C28.9646109,16.5660233 29.2075004,17.0771283 29.5978842,17.4409658 C28.8566344,17.5437036 28.1648416,17.6650729 27.5225059,17.8050739 C27.1458361,17.3164104 26.5439144,17 25.8656534,17 C24.7246488,17 23.7996818,17.8954305 23.7996818,19 C23.7996818,19.0358244 23.8006547,19.0714289 23.8025765,19.1067899 C23.1642206,19.4624749 22.6463342,19.8635434 22.2489174,20.3099954 L21.9146152,17.6185303 C22.4310029,17.2549544 22.7666959,16.665428 22.7666959,16 C22.7666959,15.163673 22.2364317,14.4472411 21.4836206,14.1485954 L21.2091681,11.93898 C22.104317,11.7196804 22.7666959,10.9347236 22.7666959,10 C22.7666959,8.90163291 21.8520876,8.01006269 20.7199247,8.00008458 L20.4699655,5.98766415 C20.5457244,5.99581496 20.6227195,6 20.7007243,6 C21.8417289,6 22.7666959,5.1045695 22.7666959,4 C22.7666959,2.8954305 21.8417289,2 20.7007243,2 C20.4509009,2 20.2114342,2.04292629 19.9897653,2.12157533 L19.6948687,-0.2526355 C19.9925359,-0.0917101869 20.3355668,0 20.7007243,0 C21.8417289,0 22.7666959,-0.8954305 22.7666959,-2 C22.7666959,-3.1045695 21.8417289,-4 20.7007243,-4 C20.1581121,-4 19.6643576,-3.79749479 19.2957056,-3.46629436 L18.8408769,-7.12811801 C19.1755203,-6.46037389 19.8825858,-6 20.7007243,-6 C21.8417289,-6 22.7666959,-6.8954305 22.7666959,-8 C22.7666959,-9.1045695 21.8417289,-10 20.7007243,-10 C19.7085695,-10 18.8797625,-9.32295748 18.6804034,-8.42008867 L16,-30 L171,-30 L170.22746,-24.9847715 C169.207352,-24.8626236 168.417697,-24.020584 168.417697,-23 C168.417697,-22.1862122 168.919765,-21.4859441 169.640398,-21.1736456 L169.243966,-18.6000592 C168.742231,-18.2351713 168.417697,-17.654275 168.417697,-17 C168.417697,-16.5585445 168.565442,-16.1504948 168.815676,-15.8196628 L166.887403,-3.30156954 C166.508501,-3.72912846 165.946296,-4 165.318739,-4 C164.177735,-4 163.252768,-3.1045695 163.252768,-2 C163.252768,-0.8954305 164.177735,0 165.318739,0 C165.726482,0 166.106637,-0.114348277 166.426851,-0.311726021 L166.050852,2.12920868 C165.823293,2.04570787 165.57653,2 165.318739,2 C164.177735,2 163.252768,2.8954305 163.252768,4 C163.252768,5.1045695 164.177735,6 165.318739,6 C165.364611,6 165.410134,5.99855274 165.455261,5.9957028 L165.145453,8.00693555 C164.085536,8.09214422 163.252768,8.95192588 163.252768,10 C163.252768,10.8423949 163.790755,11.5631486 164.552264,11.8578389 L164.170346,14.3371978 C163.617027,14.6960359 163.252768,15.3068377 163.252768,16 C163.252768,16.4803316 163.427681,16.9211146 163.71921,17.2659134 L162.855614,22.8722666 C160.716652,21.9717397 158.542904,21.1750638 156.33437,20.4822477 Z M20.7007243,-24 C21.8417289,-24 22.7666959,-24.8954305 22.7666959,-26 C22.7666959,-27.1045695 21.8417289,-28 20.7007243,-28 C19.5597197,-28 18.6347526,-27.1045695 18.6347526,-26 C18.6347526,-24.8954305 19.5597197,-24 20.7007243,-24 Z M31.0305825,-24 C32.1715871,-24 33.0965542,-24.8954305 33.0965542,-26 C33.0965542,-27.1045695 32.1715871,-28 31.0305825,-28 C29.8895779,-28 28.9646109,-27.1045695 28.9646109,-26 C28.9646109,-24.8954305 29.8895779,-24 31.0305825,-24 Z M41.3604407,-24 C42.5014454,-24 43.4264124,-24.8954305 43.4264124,-26 C43.4264124,-27.1045695 42.5014454,-28 41.3604407,-28 C40.2194361,-28 39.2944691,-27.1045695 39.2944691,-26 C39.2944691,-24.8954305 40.2194361,-24 41.3604407,-24 Z M51.690299,-24 C52.8313036,-24 53.7562706,-24.8954305 53.7562706,-26 C53.7562706,-27.1045695 52.8313036,-28 51.690299,-28 C50.5492943,-28 49.6243273,-27.1045695 49.6243273,-26 C49.6243273,-24.8954305 50.5492943,-24 51.690299,-24 Z M62.0201572,-24 C63.1611618,-24 64.0861288,-24.8954305 64.0861288,-26 C64.0861288,-27.1045695 63.1611618,-28 62.0201572,-28 C60.8791525,-28 59.9541855,-27.1045695 59.9541855,-26 C59.9541855,-24.8954305 60.8791525,-24 62.0201572,-24 Z M72.3500154,-24 C73.49102,-24 74.415987,-24.8954305 74.415987,-26 C74.415987,-27.1045695 73.49102,-28 72.3500154,-28 C71.2090108,-28 70.2840438,-27.1045695 70.2840438,-26 C70.2840438,-24.8954305 71.2090108,-24 72.3500154,-24 Z M82.6798736,-24 C83.8208783,-24 84.7458453,-24.8954305 84.7458453,-26 C84.7458453,-27.1045695 83.8208783,-28 82.6798736,-28 C81.538869,-28 80.613902,-27.1045695 80.613902,-26 C80.613902,-24.8954305 81.538869,-24 82.6798736,-24 Z M93.0097318,-24 C94.1507365,-24 95.0757035,-24.8954305 95.0757035,-26 C95.0757035,-27.1045695 94.1507365,-28 93.0097318,-28 C91.8687272,-28 90.9437602,-27.1045695 90.9437602,-26 C90.9437602,-24.8954305 91.8687272,-24 93.0097318,-24 Z M103.33959,-24 C104.480595,-24 105.405562,-24.8954305 105.405562,-26 C105.405562,-27.1045695 104.480595,-28 103.33959,-28 C102.198585,-28 101.273618,-27.1045695 101.273618,-26 C101.273618,-24.8954305 102.198585,-24 103.33959,-24 Z M113.669448,-24 C114.810453,-24 115.73542,-24.8954305 115.73542,-26 C115.73542,-27.1045695 114.810453,-28 113.669448,-28 C112.528444,-28 111.603477,-27.1045695 111.603477,-26 C111.603477,-24.8954305 112.528444,-24 113.669448,-24 Z M123.999307,-24 C125.140311,-24 126.065278,-24.8954305 126.065278,-26 C126.065278,-27.1045695 125.140311,-28 123.999307,-28 C122.858302,-28 121.933335,-27.1045695 121.933335,-26 C121.933335,-24.8954305 122.858302,-24 123.999307,-24 Z M134.329165,-24 C135.470169,-24 136.395136,-24.8954305 136.395136,-26 C136.395136,-27.1045695 135.470169,-28 134.329165,-28 C133.18816,-28 132.263193,-27.1045695 132.263193,-26 C132.263193,-24.8954305 133.18816,-24 134.329165,-24 Z M144.659023,-24 C145.800028,-24 146.724995,-24.8954305 146.724995,-26 C146.724995,-27.1045695 145.800028,-28 144.659023,-28 C143.518018,-28 142.593051,-27.1045695 142.593051,-26 C142.593051,-24.8954305 143.518018,-24 144.659023,-24 Z M154.988881,-24 C156.129886,-24 157.054853,-24.8954305 157.054853,-26 C157.054853,-27.1045695 156.129886,-28 154.988881,-28 C153.847877,-28 152.92291,-27.1045695 152.92291,-26 C152.92291,-24.8954305 153.847877,-24 154.988881,-24 Z M165.318739,-24 C166.459744,-24 167.384711,-24.8954305 167.384711,-26 C167.384711,-27.1045695 166.459744,-28 165.318739,-28 C164.177735,-28 163.252768,-27.1045695 163.252768,-26 C163.252768,-24.8954305 164.177735,-24 165.318739,-24 Z M25.8656534,-21 C27.006658,-21 27.931625,-21.8954305 27.931625,-23 C27.931625,-24.1045695 27.006658,-25 25.8656534,-25 C24.7246488,-25 23.7996818,-24.1045695 23.7996818,-23 C23.7996818,-21.8954305 24.7246488,-21 25.8656534,-21 Z M36.1955116,-21 C37.3365163,-21 38.2614833,-21.8954305 38.2614833,-23 C38.2614833,-24.1045695 37.3365163,-25 36.1955116,-25 C35.054507,-25 34.12954,-24.1045695 34.12954,-23 C34.12954,-21.8954305 35.054507,-21 36.1955116,-21 Z M46.5253698,-21 C47.6663745,-21 48.5913415,-21.8954305 48.5913415,-23 C48.5913415,-24.1045695 47.6663745,-25 46.5253698,-25 C45.3843652,-25 44.4593982,-24.1045695 44.4593982,-23 C44.4593982,-21.8954305 45.3843652,-21 46.5253698,-21 Z M56.8552281,-21 C57.9962327,-21 58.9211997,-21.8954305 58.9211997,-23 C58.9211997,-24.1045695 57.9962327,-25 56.8552281,-25 C55.7142234,-25 54.7892564,-24.1045695 54.7892564,-23 C54.7892564,-21.8954305 55.7142234,-21 56.8552281,-21 Z M67.1850863,-21 C68.3260909,-21 69.2510579,-21.8954305 69.2510579,-23 C69.2510579,-24.1045695 68.3260909,-25 67.1850863,-25 C66.0440817,-25 65.1191146,-24.1045695 65.1191146,-23 C65.1191146,-21.8954305 66.0440817,-21 67.1850863,-21 Z M77.5149445,-21 C78.6559491,-21 79.5809162,-21.8954305 79.5809162,-23 C79.5809162,-24.1045695 78.6559491,-25 77.5149445,-25 C76.3739399,-25 75.4489729,-24.1045695 75.4489729,-23 C75.4489729,-21.8954305 76.3739399,-21 77.5149445,-21 Z M87.8448027,-21 C88.9858074,-21 89.9107744,-21.8954305 89.9107744,-23 C89.9107744,-24.1045695 88.9858074,-25 87.8448027,-25 C86.7037981,-25 85.7788311,-24.1045695 85.7788311,-23 C85.7788311,-21.8954305 86.7037981,-21 87.8448027,-21 Z M98.174661,-21 C99.3156656,-21 100.240633,-21.8954305 100.240633,-23 C100.240633,-24.1045695 99.3156656,-25 98.174661,-25 C97.0336563,-25 96.1086893,-24.1045695 96.1086893,-23 C96.1086893,-21.8954305 97.0336563,-21 98.174661,-21 Z M108.504519,-21 C109.645524,-21 110.570491,-21.8954305 110.570491,-23 C110.570491,-24.1045695 109.645524,-25 108.504519,-25 C107.363515,-25 106.438548,-24.1045695 106.438548,-23 C106.438548,-21.8954305 107.363515,-21 108.504519,-21 Z M118.834377,-21 C119.975382,-21 120.900349,-21.8954305 120.900349,-23 C120.900349,-24.1045695 119.975382,-25 118.834377,-25 C117.693373,-25 116.768406,-24.1045695 116.768406,-23 C116.768406,-21.8954305 117.693373,-21 118.834377,-21 Z M129.164236,-21 C130.30524,-21 131.230207,-21.8954305 131.230207,-23 C131.230207,-24.1045695 130.30524,-25 129.164236,-25 C128.023231,-25 127.098264,-24.1045695 127.098264,-23 C127.098264,-21.8954305 128.023231,-21 129.164236,-21 Z M139.494094,-21 C140.635098,-21 141.560065,-21.8954305 141.560065,-23 C141.560065,-24.1045695 140.635098,-25 139.494094,-25 C138.353089,-25 137.428122,-24.1045695 137.428122,-23 C137.428122,-21.8954305 138.353089,-21 139.494094,-21 Z M149.823952,-21 C150.964957,-21 151.889924,-21.8954305 151.889924,-23 C151.889924,-24.1045695 150.964957,-25 149.823952,-25 C148.682947,-25 147.75798,-24.1045695 147.75798,-23 C147.75798,-21.8954305 148.682947,-21 149.823952,-21 Z M160.15381,-21 C161.294815,-21 162.219782,-21.8954305 162.219782,-23 C162.219782,-24.1045695 161.294815,-25 160.15381,-25 C159.012806,-25 158.087839,-24.1045695 158.087839,-23 C158.087839,-21.8954305 159.012806,-21 160.15381,-21 Z M20.7007243,-18 C21.8417289,-18 22.7666959,-18.8954305 22.7666959,-20 C22.7666959,-21.1045695 21.8417289,-22 20.7007243,-22 C19.5597197,-22 18.6347526,-21.1045695 18.6347526,-20 C18.6347526,-18.8954305 19.5597197,-18 20.7007243,-18 Z M31.0305825,-18 C32.1715871,-18 33.0965542,-18.8954305 33.0965542,-20 C33.0965542,-21.1045695 32.1715871,-22 31.0305825,-22 C29.8895779,-22 28.9646109,-21.1045695 28.9646109,-20 C28.9646109,-18.8954305 29.8895779,-18 31.0305825,-18 Z M41.3604407,-18 C42.5014454,-18 43.4264124,-18.8954305 43.4264124,-20 C43.4264124,-21.1045695 42.5014454,-22 41.3604407,-22 C40.2194361,-22 39.2944691,-21.1045695 39.2944691,-20 C39.2944691,-18.8954305 40.2194361,-18 41.3604407,-18 Z M51.690299,-18 C52.8313036,-18 53.7562706,-18.8954305 53.7562706,-20 C53.7562706,-21.1045695 52.8313036,-22 51.690299,-22 C50.5492943,-22 49.6243273,-21.1045695 49.6243273,-20 C49.6243273,-18.8954305 50.5492943,-18 51.690299,-18 Z M62.0201572,-18 C63.1611618,-18 64.0861288,-18.8954305 64.0861288,-20 C64.0861288,-21.1045695 63.1611618,-22 62.0201572,-22 C60.8791525,-22 59.9541855,-21.1045695 59.9541855,-20 C59.9541855,-18.8954305 60.8791525,-18 62.0201572,-18 Z M72.3500154,-18 C73.49102,-18 74.415987,-18.8954305 74.415987,-20 C74.415987,-21.1045695 73.49102,-22 72.3500154,-22 C71.2090108,-22 70.2840438,-21.1045695 70.2840438,-20 C70.2840438,-18.8954305 71.2090108,-18 72.3500154,-18 Z M82.6798736,-18 C83.8208783,-18 84.7458453,-18.8954305 84.7458453,-20 C84.7458453,-21.1045695 83.8208783,-22 82.6798736,-22 C81.538869,-22 80.613902,-21.1045695 80.613902,-20 C80.613902,-18.8954305 81.538869,-18 82.6798736,-18 Z M93.0097318,-18 C94.1507365,-18 95.0757035,-18.8954305 95.0757035,-20 C95.0757035,-21.1045695 94.1507365,-22 93.0097318,-22 C91.8687272,-22 90.9437602,-21.1045695 90.9437602,-20 C90.9437602,-18.8954305 91.8687272,-18 93.0097318,-18 Z M103.33959,-18 C104.480595,-18 105.405562,-18.8954305 105.405562,-20 C105.405562,-21.1045695 104.480595,-22 103.33959,-22 C102.198585,-22 101.273618,-21.1045695 101.273618,-20 C101.273618,-18.8954305 102.198585,-18 103.33959,-18 Z M113.669448,-18 C114.810453,-18 115.73542,-18.8954305 115.73542,-20 C115.73542,-21.1045695 114.810453,-22 113.669448,-22 C112.528444,-22 111.603477,-21.1045695 111.603477,-20 C111.603477,-18.8954305 112.528444,-18 113.669448,-18 Z M123.999307,-18 C125.140311,-18 126.065278,-18.8954305 126.065278,-20 C126.065278,-21.1045695 125.140311,-22 123.999307,-22 C122.858302,-22 121.933335,-21.1045695 121.933335,-20 C121.933335,-18.8954305 122.858302,-18 123.999307,-18 Z M134.329165,-18 C135.470169,-18 136.395136,-18.8954305 136.395136,-20 C136.395136,-21.1045695 135.470169,-22 134.329165,-22 C133.18816,-22 132.263193,-21.1045695 132.263193,-20 C132.263193,-18.8954305 133.18816,-18 134.329165,-18 Z M144.659023,-18 C145.800028,-18 146.724995,-18.8954305 146.724995,-20 C146.724995,-21.1045695 145.800028,-22 144.659023,-22 C143.518018,-22 142.593051,-21.1045695 142.593051,-20 C142.593051,-18.8954305 143.518018,-18 144.659023,-18 Z M154.988881,-18 C156.129886,-18 157.054853,-18.8954305 157.054853,-20 C157.054853,-21.1045695 156.129886,-22 154.988881,-22 C153.847877,-22 152.92291,-21.1045695 152.92291,-20 C152.92291,-18.8954305 153.847877,-18 154.988881,-18 Z M165.318739,-18 C166.459744,-18 167.384711,-18.8954305 167.384711,-20 C167.384711,-21.1045695 166.459744,-22 165.318739,-22 C164.177735,-22 163.252768,-21.1045695 163.252768,-20 C163.252768,-18.8954305 164.177735,-18 165.318739,-18 Z M25.8656534,-15 C27.006658,-15 27.931625,-15.8954305 27.931625,-17 C27.931625,-18.1045695 27.006658,-19 25.8656534,-19 C24.7246488,-19 23.7996818,-18.1045695 23.7996818,-17 C23.7996818,-15.8954305 24.7246488,-15 25.8656534,-15 Z M36.1955116,-15 C37.3365163,-15 38.2614833,-15.8954305 38.2614833,-17 C38.2614833,-18.1045695 37.3365163,-19 36.1955116,-19 C35.054507,-19 34.12954,-18.1045695 34.12954,-17 C34.12954,-15.8954305 35.054507,-15 36.1955116,-15 Z M46.5253698,-15 C47.6663745,-15 48.5913415,-15.8954305 48.5913415,-17 C48.5913415,-18.1045695 47.6663745,-19 46.5253698,-19 C45.3843652,-19 44.4593982,-18.1045695 44.4593982,-17 C44.4593982,-15.8954305 45.3843652,-15 46.5253698,-15 Z M56.8552281,-15 C57.9962327,-15 58.9211997,-15.8954305 58.9211997,-17 C58.9211997,-18.1045695 57.9962327,-19 56.8552281,-19 C55.7142234,-19 54.7892564,-18.1045695 54.7892564,-17 C54.7892564,-15.8954305 55.7142234,-15 56.8552281,-15 Z M67.1850863,-15 C68.3260909,-15 69.2510579,-15.8954305 69.2510579,-17 C69.2510579,-18.1045695 68.3260909,-19 67.1850863,-19 C66.0440817,-19 65.1191146,-18.1045695 65.1191146,-17 C65.1191146,-15.8954305 66.0440817,-15 67.1850863,-15 Z M77.5149445,-15 C78.6559491,-15 79.5809162,-15.8954305 79.5809162,-17 C79.5809162,-18.1045695 78.6559491,-19 77.5149445,-19 C76.3739399,-19 75.4489729,-18.1045695 75.4489729,-17 C75.4489729,-15.8954305 76.3739399,-15 77.5149445,-15 Z M87.8448027,-15 C88.9858074,-15 89.9107744,-15.8954305 89.9107744,-17 C89.9107744,-18.1045695 88.9858074,-19 87.8448027,-19 C86.7037981,-19 85.7788311,-18.1045695 85.7788311,-17 C85.7788311,-15.8954305 86.7037981,-15 87.8448027,-15 Z M98.174661,-15 C99.3156656,-15 100.240633,-15.8954305 100.240633,-17 C100.240633,-18.1045695 99.3156656,-19 98.174661,-19 C97.0336563,-19 96.1086893,-18.1045695 96.1086893,-17 C96.1086893,-15.8954305 97.0336563,-15 98.174661,-15 Z M108.504519,-15 C109.645524,-15 110.570491,-15.8954305 110.570491,-17 C110.570491,-18.1045695 109.645524,-19 108.504519,-19 C107.363515,-19 106.438548,-18.1045695 106.438548,-17 C106.438548,-15.8954305 107.363515,-15 108.504519,-15 Z M118.834377,-15 C119.975382,-15 120.900349,-15.8954305 120.900349,-17 C120.900349,-18.1045695 119.975382,-19 118.834377,-19 C117.693373,-19 116.768406,-18.1045695 116.768406,-17 C116.768406,-15.8954305 117.693373,-15 118.834377,-15 Z M129.164236,-15 C130.30524,-15 131.230207,-15.8954305 131.230207,-17 C131.230207,-18.1045695 130.30524,-19 129.164236,-19 C128.023231,-19 127.098264,-18.1045695 127.098264,-17 C127.098264,-15.8954305 128.023231,-15 129.164236,-15 Z M139.494094,-15 C140.635098,-15 141.560065,-15.8954305 141.560065,-17 C141.560065,-18.1045695 140.635098,-19 139.494094,-19 C138.353089,-19 137.428122,-18.1045695 137.428122,-17 C137.428122,-15.8954305 138.353089,-15 139.494094,-15 Z M149.823952,-15 C150.964957,-15 151.889924,-15.8954305 151.889924,-17 C151.889924,-18.1045695 150.964957,-19 149.823952,-19 C148.682947,-19 147.75798,-18.1045695 147.75798,-17 C147.75798,-15.8954305 148.682947,-15 149.823952,-15 Z M160.15381,-15 C161.294815,-15 162.219782,-15.8954305 162.219782,-17 C162.219782,-18.1045695 161.294815,-19 160.15381,-19 C159.012806,-19 158.087839,-18.1045695 158.087839,-17 C158.087839,-15.8954305 159.012806,-15 160.15381,-15 Z M20.7007243,-12 C21.8417289,-12 22.7666959,-12.8954305 22.7666959,-14 C22.7666959,-15.1045695 21.8417289,-16 20.7007243,-16 C19.5597197,-16 18.6347526,-15.1045695 18.6347526,-14 C18.6347526,-12.8954305 19.5597197,-12 20.7007243,-12 Z M31.0305825,-12 C32.1715871,-12 33.0965542,-12.8954305 33.0965542,-14 C33.0965542,-15.1045695 32.1715871,-16 31.0305825,-16 C29.8895779,-16 28.9646109,-15.1045695 28.9646109,-14 C28.9646109,-12.8954305 29.8895779,-12 31.0305825,-12 Z M41.3604407,-12 C42.5014454,-12 43.4264124,-12.8954305 43.4264124,-14 C43.4264124,-15.1045695 42.5014454,-16 41.3604407,-16 C40.2194361,-16 39.2944691,-15.1045695 39.2944691,-14 C39.2944691,-12.8954305 40.2194361,-12 41.3604407,-12 Z M51.690299,-12 C52.8313036,-12 53.7562706,-12.8954305 53.7562706,-14 C53.7562706,-15.1045695 52.8313036,-16 51.690299,-16 C50.5492943,-16 49.6243273,-15.1045695 49.6243273,-14 C49.6243273,-12.8954305 50.5492943,-12 51.690299,-12 Z M62.0201572,-12 C63.1611618,-12 64.0861288,-12.8954305 64.0861288,-14 C64.0861288,-15.1045695 63.1611618,-16 62.0201572,-16 C60.8791525,-16 59.9541855,-15.1045695 59.9541855,-14 C59.9541855,-12.8954305 60.8791525,-12 62.0201572,-12 Z M72.3500154,-12 C73.49102,-12 74.415987,-12.8954305 74.415987,-14 C74.415987,-15.1045695 73.49102,-16 72.3500154,-16 C71.2090108,-16 70.2840438,-15.1045695 70.2840438,-14 C70.2840438,-12.8954305 71.2090108,-12 72.3500154,-12 Z M82.6798736,-12 C83.8208783,-12 84.7458453,-12.8954305 84.7458453,-14 C84.7458453,-15.1045695 83.8208783,-16 82.6798736,-16 C81.538869,-16 80.613902,-15.1045695 80.613902,-14 C80.613902,-12.8954305 81.538869,-12 82.6798736,-12 Z M93.0097318,-12 C94.1507365,-12 95.0757035,-12.8954305 95.0757035,-14 C95.0757035,-15.1045695 94.1507365,-16 93.0097318,-16 C91.8687272,-16 90.9437602,-15.1045695 90.9437602,-14 C90.9437602,-12.8954305 91.8687272,-12 93.0097318,-12 Z M103.33959,-12 C104.480595,-12 105.405562,-12.8954305 105.405562,-14 C105.405562,-15.1045695 104.480595,-16 103.33959,-16 C102.198585,-16 101.273618,-15.1045695 101.273618,-14 C101.273618,-12.8954305 102.198585,-12 103.33959,-12 Z M113.669448,-12 C114.810453,-12 115.73542,-12.8954305 115.73542,-14 C115.73542,-15.1045695 114.810453,-16 113.669448,-16 C112.528444,-16 111.603477,-15.1045695 111.603477,-14 C111.603477,-12.8954305 112.528444,-12 113.669448,-12 Z M123.999307,-12 C125.140311,-12 126.065278,-12.8954305 126.065278,-14 C126.065278,-15.1045695 125.140311,-16 123.999307,-16 C122.858302,-16 121.933335,-15.1045695 121.933335,-14 C121.933335,-12.8954305 122.858302,-12 123.999307,-12 Z M134.329165,-12 C135.470169,-12 136.395136,-12.8954305 136.395136,-14 C136.395136,-15.1045695 135.470169,-16 134.329165,-16 C133.18816,-16 132.263193,-15.1045695 132.263193,-14 C132.263193,-12.8954305 133.18816,-12 134.329165,-12 Z M144.659023,-12 C145.800028,-12 146.724995,-12.8954305 146.724995,-14 C146.724995,-15.1045695 145.800028,-16 144.659023,-16 C143.518018,-16 142.593051,-15.1045695 142.593051,-14 C142.593051,-12.8954305 143.518018,-12 144.659023,-12 Z M154.988881,-12 C156.129886,-12 157.054853,-12.8954305 157.054853,-14 C157.054853,-15.1045695 156.129886,-16 154.988881,-16 C153.847877,-16 152.92291,-15.1045695 152.92291,-14 C152.92291,-12.8954305 153.847877,-12 154.988881,-12 Z M165.318739,-12 C166.459744,-12 167.384711,-12.8954305 167.384711,-14 C167.384711,-15.1045695 166.459744,-16 165.318739,-16 C164.177735,-16 163.252768,-15.1045695 163.252768,-14 C163.252768,-12.8954305 164.177735,-12 165.318739,-12 Z M25.8656534,-9 C27.006658,-9 27.931625,-9.8954305 27.931625,-11 C27.931625,-12.1045695 27.006658,-13 25.8656534,-13 C24.7246488,-13 23.7996818,-12.1045695 23.7996818,-11 C23.7996818,-9.8954305 24.7246488,-9 25.8656534,-9 Z M36.1955116,-9 C37.3365163,-9 38.2614833,-9.8954305 38.2614833,-11 C38.2614833,-12.1045695 37.3365163,-13 36.1955116,-13 C35.054507,-13 34.12954,-12.1045695 34.12954,-11 C34.12954,-9.8954305 35.054507,-9 36.1955116,-9 Z M46.5253698,-9 C47.6663745,-9 48.5913415,-9.8954305 48.5913415,-11 C48.5913415,-12.1045695 47.6663745,-13 46.5253698,-13 C45.3843652,-13 44.4593982,-12.1045695 44.4593982,-11 C44.4593982,-9.8954305 45.3843652,-9 46.5253698,-9 Z M56.8552281,-9 C57.9962327,-9 58.9211997,-9.8954305 58.9211997,-11 C58.9211997,-12.1045695 57.9962327,-13 56.8552281,-13 C55.7142234,-13 54.7892564,-12.1045695 54.7892564,-11 C54.7892564,-9.8954305 55.7142234,-9 56.8552281,-9 Z M67.1850863,-9 C68.3260909,-9 69.2510579,-9.8954305 69.2510579,-11 C69.2510579,-12.1045695 68.3260909,-13 67.1850863,-13 C66.0440817,-13 65.1191146,-12.1045695 65.1191146,-11 C65.1191146,-9.8954305 66.0440817,-9 67.1850863,-9 Z M77.5149445,-9 C78.6559491,-9 79.5809162,-9.8954305 79.5809162,-11 C79.5809162,-12.1045695 78.6559491,-13 77.5149445,-13 C76.3739399,-13 75.4489729,-12.1045695 75.4489729,-11 C75.4489729,-9.8954305 76.3739399,-9 77.5149445,-9 Z M87.8448027,-9 C88.9858074,-9 89.9107744,-9.8954305 89.9107744,-11 C89.9107744,-12.1045695 88.9858074,-13 87.8448027,-13 C86.7037981,-13 85.7788311,-12.1045695 85.7788311,-11 C85.7788311,-9.8954305 86.7037981,-9 87.8448027,-9 Z M98.174661,-9 C99.3156656,-9 100.240633,-9.8954305 100.240633,-11 C100.240633,-12.1045695 99.3156656,-13 98.174661,-13 C97.0336563,-13 96.1086893,-12.1045695 96.1086893,-11 C96.1086893,-9.8954305 97.0336563,-9 98.174661,-9 Z M108.504519,-9 C109.645524,-9 110.570491,-9.8954305 110.570491,-11 C110.570491,-12.1045695 109.645524,-13 108.504519,-13 C107.363515,-13 106.438548,-12.1045695 106.438548,-11 C106.438548,-9.8954305 107.363515,-9 108.504519,-9 Z M118.834377,-9 C119.975382,-9 120.900349,-9.8954305 120.900349,-11 C120.900349,-12.1045695 119.975382,-13 118.834377,-13 C117.693373,-13 116.768406,-12.1045695 116.768406,-11 C116.768406,-9.8954305 117.693373,-9 118.834377,-9 Z M129.164236,-9 C130.30524,-9 131.230207,-9.8954305 131.230207,-11 C131.230207,-12.1045695 130.30524,-13 129.164236,-13 C128.023231,-13 127.098264,-12.1045695 127.098264,-11 C127.098264,-9.8954305 128.023231,-9 129.164236,-9 Z M139.494094,-9 C140.635098,-9 141.560065,-9.8954305 141.560065,-11 C141.560065,-12.1045695 140.635098,-13 139.494094,-13 C138.353089,-13 137.428122,-12.1045695 137.428122,-11 C137.428122,-9.8954305 138.353089,-9 139.494094,-9 Z M149.823952,-9 C150.964957,-9 151.889924,-9.8954305 151.889924,-11 C151.889924,-12.1045695 150.964957,-13 149.823952,-13 C148.682947,-13 147.75798,-12.1045695 147.75798,-11 C147.75798,-9.8954305 148.682947,-9 149.823952,-9 Z M160.15381,-9 C161.294815,-9 162.219782,-9.8954305 162.219782,-11 C162.219782,-12.1045695 161.294815,-13 160.15381,-13 C159.012806,-13 158.087839,-12.1045695 158.087839,-11 C158.087839,-9.8954305 159.012806,-9 160.15381,-9 Z M31.0305825,-6 C32.1715871,-6 33.0965542,-6.8954305 33.0965542,-8 C33.0965542,-9.1045695 32.1715871,-10 31.0305825,-10 C29.8895779,-10 28.9646109,-9.1045695 28.9646109,-8 C28.9646109,-6.8954305 29.8895779,-6 31.0305825,-6 Z M41.3604407,-6 C42.5014454,-6 43.4264124,-6.8954305 43.4264124,-8 C43.4264124,-9.1045695 42.5014454,-10 41.3604407,-10 C40.2194361,-10 39.2944691,-9.1045695 39.2944691,-8 C39.2944691,-6.8954305 40.2194361,-6 41.3604407,-6 Z M51.690299,-6 C52.8313036,-6 53.7562706,-6.8954305 53.7562706,-8 C53.7562706,-9.1045695 52.8313036,-10 51.690299,-10 C50.5492943,-10 49.6243273,-9.1045695 49.6243273,-8 C49.6243273,-6.8954305 50.5492943,-6 51.690299,-6 Z M62.0201572,-6 C63.1611618,-6 64.0861288,-6.8954305 64.0861288,-8 C64.0861288,-9.1045695 63.1611618,-10 62.0201572,-10 C60.8791525,-10 59.9541855,-9.1045695 59.9541855,-8 C59.9541855,-6.8954305 60.8791525,-6 62.0201572,-6 Z M72.3500154,-6 C73.49102,-6 74.415987,-6.8954305 74.415987,-8 C74.415987,-9.1045695 73.49102,-10 72.3500154,-10 C71.2090108,-10 70.2840438,-9.1045695 70.2840438,-8 C70.2840438,-6.8954305 71.2090108,-6 72.3500154,-6 Z M82.6798736,-6 C83.8208783,-6 84.7458453,-6.8954305 84.7458453,-8 C84.7458453,-9.1045695 83.8208783,-10 82.6798736,-10 C81.538869,-10 80.613902,-9.1045695 80.613902,-8 C80.613902,-6.8954305 81.538869,-6 82.6798736,-6 Z M93.0097318,-6 C94.1507365,-6 95.0757035,-6.8954305 95.0757035,-8 C95.0757035,-9.1045695 94.1507365,-10 93.0097318,-10 C91.8687272,-10 90.9437602,-9.1045695 90.9437602,-8 C90.9437602,-6.8954305 91.8687272,-6 93.0097318,-6 Z M103.33959,-6 C104.480595,-6 105.405562,-6.8954305 105.405562,-8 C105.405562,-9.1045695 104.480595,-10 103.33959,-10 C102.198585,-10 101.273618,-9.1045695 101.273618,-8 C101.273618,-6.8954305 102.198585,-6 103.33959,-6 Z M113.669448,-6 C114.810453,-6 115.73542,-6.8954305 115.73542,-8 C115.73542,-9.1045695 114.810453,-10 113.669448,-10 C112.528444,-10 111.603477,-9.1045695 111.603477,-8 C111.603477,-6.8954305 112.528444,-6 113.669448,-6 Z M123.999307,-6 C125.140311,-6 126.065278,-6.8954305 126.065278,-8 C126.065278,-9.1045695 125.140311,-10 123.999307,-10 C122.858302,-10 121.933335,-9.1045695 121.933335,-8 C121.933335,-6.8954305 122.858302,-6 123.999307,-6 Z M134.329165,-6 C135.470169,-6 136.395136,-6.8954305 136.395136,-8 C136.395136,-9.1045695 135.470169,-10 134.329165,-10 C133.18816,-10 132.263193,-9.1045695 132.263193,-8 C132.263193,-6.8954305 133.18816,-6 134.329165,-6 Z M144.659023,-6 C145.800028,-6 146.724995,-6.8954305 146.724995,-8 C146.724995,-9.1045695 145.800028,-10 144.659023,-10 C143.518018,-10 142.593051,-9.1045695 142.593051,-8 C142.593051,-6.8954305 143.518018,-6 144.659023,-6 Z M154.988881,-6 C156.129886,-6 157.054853,-6.8954305 157.054853,-8 C157.054853,-9.1045695 156.129886,-10 154.988881,-10 C153.847877,-10 152.92291,-9.1045695 152.92291,-8 C152.92291,-6.8954305 153.847877,-6 154.988881,-6 Z M165.318739,-6 C166.459744,-6 167.384711,-6.8954305 167.384711,-8 C167.384711,-9.1045695 166.459744,-10 165.318739,-10 C164.177735,-10 163.252768,-9.1045695 163.252768,-8 C163.252768,-6.8954305 164.177735,-6 165.318739,-6 Z M25.8656534,-3 C27.006658,-3 27.931625,-3.8954305 27.931625,-5 C27.931625,-6.1045695 27.006658,-7 25.8656534,-7 C24.7246488,-7 23.7996818,-6.1045695 23.7996818,-5 C23.7996818,-3.8954305 24.7246488,-3 25.8656534,-3 Z M36.1955116,-3 C37.3365163,-3 38.2614833,-3.8954305 38.2614833,-5 C38.2614833,-6.1045695 37.3365163,-7 36.1955116,-7 C35.054507,-7 34.12954,-6.1045695 34.12954,-5 C34.12954,-3.8954305 35.054507,-3 36.1955116,-3 Z M46.5253698,-3 C47.6663745,-3 48.5913415,-3.8954305 48.5913415,-5 C48.5913415,-6.1045695 47.6663745,-7 46.5253698,-7 C45.3843652,-7 44.4593982,-6.1045695 44.4593982,-5 C44.4593982,-3.8954305 45.3843652,-3 46.5253698,-3 Z M56.8552281,-3 C57.9962327,-3 58.9211997,-3.8954305 58.9211997,-5 C58.9211997,-6.1045695 57.9962327,-7 56.8552281,-7 C55.7142234,-7 54.7892564,-6.1045695 54.7892564,-5 C54.7892564,-3.8954305 55.7142234,-3 56.8552281,-3 Z M67.1850863,-3 C68.3260909,-3 69.2510579,-3.8954305 69.2510579,-5 C69.2510579,-6.1045695 68.3260909,-7 67.1850863,-7 C66.0440817,-7 65.1191146,-6.1045695 65.1191146,-5 C65.1191146,-3.8954305 66.0440817,-3 67.1850863,-3 Z M77.5149445,-3 C78.6559491,-3 79.5809162,-3.8954305 79.5809162,-5 C79.5809162,-6.1045695 78.6559491,-7 77.5149445,-7 C76.3739399,-7 75.4489729,-6.1045695 75.4489729,-5 C75.4489729,-3.8954305 76.3739399,-3 77.5149445,-3 Z M87.8448027,-3 C88.9858074,-3 89.9107744,-3.8954305 89.9107744,-5 C89.9107744,-6.1045695 88.9858074,-7 87.8448027,-7 C86.7037981,-7 85.7788311,-6.1045695 85.7788311,-5 C85.7788311,-3.8954305 86.7037981,-3 87.8448027,-3 Z M98.174661,-3 C99.3156656,-3 100.240633,-3.8954305 100.240633,-5 C100.240633,-6.1045695 99.3156656,-7 98.174661,-7 C97.0336563,-7 96.1086893,-6.1045695 96.1086893,-5 C96.1086893,-3.8954305 97.0336563,-3 98.174661,-3 Z M108.504519,-3 C109.645524,-3 110.570491,-3.8954305 110.570491,-5 C110.570491,-6.1045695 109.645524,-7 108.504519,-7 C107.363515,-7 106.438548,-6.1045695 106.438548,-5 C106.438548,-3.8954305 107.363515,-3 108.504519,-3 Z M118.834377,-3 C119.975382,-3 120.900349,-3.8954305 120.900349,-5 C120.900349,-6.1045695 119.975382,-7 118.834377,-7 C117.693373,-7 116.768406,-6.1045695 116.768406,-5 C116.768406,-3.8954305 117.693373,-3 118.834377,-3 Z M129.164236,-3 C130.30524,-3 131.230207,-3.8954305 131.230207,-5 C131.230207,-6.1045695 130.30524,-7 129.164236,-7 C128.023231,-7 127.098264,-6.1045695 127.098264,-5 C127.098264,-3.8954305 128.023231,-3 129.164236,-3 Z M139.494094,-3 C140.635098,-3 141.560065,-3.8954305 141.560065,-5 C141.560065,-6.1045695 140.635098,-7 139.494094,-7 C138.353089,-7 137.428122,-6.1045695 137.428122,-5 C137.428122,-3.8954305 138.353089,-3 139.494094,-3 Z M149.823952,-3 C150.964957,-3 151.889924,-3.8954305 151.889924,-5 C151.889924,-6.1045695 150.964957,-7 149.823952,-7 C148.682947,-7 147.75798,-6.1045695 147.75798,-5 C147.75798,-3.8954305 148.682947,-3 149.823952,-3 Z M160.15381,-3 C161.294815,-3 162.219782,-3.8954305 162.219782,-5 C162.219782,-6.1045695 161.294815,-7 160.15381,-7 C159.012806,-7 158.087839,-6.1045695 158.087839,-5 C158.087839,-3.8954305 159.012806,-3 160.15381,-3 Z M31.0305825,0 C32.1715871,0 33.0965542,-0.8954305 33.0965542,-2 C33.0965542,-3.1045695 32.1715871,-4 31.0305825,-4 C29.8895779,-4 28.9646109,-3.1045695 28.9646109,-2 C28.9646109,-0.8954305 29.8895779,0 31.0305825,0 Z M41.3604407,0 C42.5014454,0 43.4264124,-0.8954305 43.4264124,-2 C43.4264124,-3.1045695 42.5014454,-4 41.3604407,-4 C40.2194361,-4 39.2944691,-3.1045695 39.2944691,-2 C39.2944691,-0.8954305 40.2194361,0 41.3604407,0 Z M51.690299,0 C52.8313036,0 53.7562706,-0.8954305 53.7562706,-2 C53.7562706,-3.1045695 52.8313036,-4 51.690299,-4 C50.5492943,-4 49.6243273,-3.1045695 49.6243273,-2 C49.6243273,-0.8954305 50.5492943,0 51.690299,0 Z M62.0201572,0 C63.1611618,0 64.0861288,-0.8954305 64.0861288,-2 C64.0861288,-3.1045695 63.1611618,-4 62.0201572,-4 C60.8791525,-4 59.9541855,-3.1045695 59.9541855,-2 C59.9541855,-0.8954305 60.8791525,0 62.0201572,0 Z M72.3500154,0 C73.49102,0 74.415987,-0.8954305 74.415987,-2 C74.415987,-3.1045695 73.49102,-4 72.3500154,-4 C71.2090108,-4 70.2840438,-3.1045695 70.2840438,-2 C70.2840438,-0.8954305 71.2090108,0 72.3500154,0 Z M82.6798736,0 C83.8208783,0 84.7458453,-0.8954305 84.7458453,-2 C84.7458453,-3.1045695 83.8208783,-4 82.6798736,-4 C81.538869,-4 80.613902,-3.1045695 80.613902,-2 C80.613902,-0.8954305 81.538869,0 82.6798736,0 Z M93.0097318,0 C94.1507365,0 95.0757035,-0.8954305 95.0757035,-2 C95.0757035,-3.1045695 94.1507365,-4 93.0097318,-4 C91.8687272,-4 90.9437602,-3.1045695 90.9437602,-2 C90.9437602,-0.8954305 91.8687272,0 93.0097318,0 Z M103.33959,0 C104.480595,0 105.405562,-0.8954305 105.405562,-2 C105.405562,-3.1045695 104.480595,-4 103.33959,-4 C102.198585,-4 101.273618,-3.1045695 101.273618,-2 C101.273618,-0.8954305 102.198585,0 103.33959,0 Z M113.669448,0 C114.810453,0 115.73542,-0.8954305 115.73542,-2 C115.73542,-3.1045695 114.810453,-4 113.669448,-4 C112.528444,-4 111.603477,-3.1045695 111.603477,-2 C111.603477,-0.8954305 112.528444,0 113.669448,0 Z M123.999307,0 C125.140311,0 126.065278,-0.8954305 126.065278,-2 C126.065278,-3.1045695 125.140311,-4 123.999307,-4 C122.858302,-4 121.933335,-3.1045695 121.933335,-2 C121.933335,-0.8954305 122.858302,0 123.999307,0 Z M134.329165,0 C135.470169,0 136.395136,-0.8954305 136.395136,-2 C136.395136,-3.1045695 135.470169,-4 134.329165,-4 C133.18816,-4 132.263193,-3.1045695 132.263193,-2 C132.263193,-0.8954305 133.18816,0 134.329165,0 Z M144.659023,0 C145.800028,0 146.724995,-0.8954305 146.724995,-2 C146.724995,-3.1045695 145.800028,-4 144.659023,-4 C143.518018,-4 142.593051,-3.1045695 142.593051,-2 C142.593051,-0.8954305 143.518018,0 144.659023,0 Z M154.988881,0 C156.129886,0 157.054853,-0.8954305 157.054853,-2 C157.054853,-3.1045695 156.129886,-4 154.988881,-4 C153.847877,-4 152.92291,-3.1045695 152.92291,-2 C152.92291,-0.8954305 153.847877,0 154.988881,0 Z M25.8656534,3 C27.006658,3 27.931625,2.1045695 27.931625,1 C27.931625,-0.1045695 27.006658,-1 25.8656534,-1 C24.7246488,-1 23.7996818,-0.1045695 23.7996818,1 C23.7996818,2.1045695 24.7246488,3 25.8656534,3 Z M36.1955116,3 C37.3365163,3 38.2614833,2.1045695 38.2614833,1 C38.2614833,-0.1045695 37.3365163,-1 36.1955116,-1 C35.054507,-1 34.12954,-0.1045695 34.12954,1 C34.12954,2.1045695 35.054507,3 36.1955116,3 Z M46.5253698,3 C47.6663745,3 48.5913415,2.1045695 48.5913415,1 C48.5913415,-0.1045695 47.6663745,-1 46.5253698,-1 C45.3843652,-1 44.4593982,-0.1045695 44.4593982,1 C44.4593982,2.1045695 45.3843652,3 46.5253698,3 Z M56.8552281,3 C57.9962327,3 58.9211997,2.1045695 58.9211997,1 C58.9211997,-0.1045695 57.9962327,-1 56.8552281,-1 C55.7142234,-1 54.7892564,-0.1045695 54.7892564,1 C54.7892564,2.1045695 55.7142234,3 56.8552281,3 Z M67.1850863,3 C68.3260909,3 69.2510579,2.1045695 69.2510579,1 C69.2510579,-0.1045695 68.3260909,-1 67.1850863,-1 C66.0440817,-1 65.1191146,-0.1045695 65.1191146,1 C65.1191146,2.1045695 66.0440817,3 67.1850863,3 Z M77.5149445,3 C78.6559491,3 79.5809162,2.1045695 79.5809162,1 C79.5809162,-0.1045695 78.6559491,-1 77.5149445,-1 C76.3739399,-1 75.4489729,-0.1045695 75.4489729,1 C75.4489729,2.1045695 76.3739399,3 77.5149445,3 Z M87.8448027,3 C88.9858074,3 89.9107744,2.1045695 89.9107744,1 C89.9107744,-0.1045695 88.9858074,-1 87.8448027,-1 C86.7037981,-1 85.7788311,-0.1045695 85.7788311,1 C85.7788311,2.1045695 86.7037981,3 87.8448027,3 Z M98.174661,3 C99.3156656,3 100.240633,2.1045695 100.240633,1 C100.240633,-0.1045695 99.3156656,-1 98.174661,-1 C97.0336563,-1 96.1086893,-0.1045695 96.1086893,1 C96.1086893,2.1045695 97.0336563,3 98.174661,3 Z M108.504519,3 C109.645524,3 110.570491,2.1045695 110.570491,1 C110.570491,-0.1045695 109.645524,-1 108.504519,-1 C107.363515,-1 106.438548,-0.1045695 106.438548,1 C106.438548,2.1045695 107.363515,3 108.504519,3 Z M118.834377,3 C119.975382,3 120.900349,2.1045695 120.900349,1 C120.900349,-0.1045695 119.975382,-1 118.834377,-1 C117.693373,-1 116.768406,-0.1045695 116.768406,1 C116.768406,2.1045695 117.693373,3 118.834377,3 Z M129.164236,3 C130.30524,3 131.230207,2.1045695 131.230207,1 C131.230207,-0.1045695 130.30524,-1 129.164236,-1 C128.023231,-1 127.098264,-0.1045695 127.098264,1 C127.098264,2.1045695 128.023231,3 129.164236,3 Z M139.494094,3 C140.635098,3 141.560065,2.1045695 141.560065,1 C141.560065,-0.1045695 140.635098,-1 139.494094,-1 C138.353089,-1 137.428122,-0.1045695 137.428122,1 C137.428122,2.1045695 138.353089,3 139.494094,3 Z M149.823952,3 C150.964957,3 151.889924,2.1045695 151.889924,1 C151.889924,-0.1045695 150.964957,-1 149.823952,-1 C148.682947,-1 147.75798,-0.1045695 147.75798,1 C147.75798,2.1045695 148.682947,3 149.823952,3 Z M160.15381,3 C161.294815,3 162.219782,2.1045695 162.219782,1 C162.219782,-0.1045695 161.294815,-1 160.15381,-1 C159.012806,-1 158.087839,-0.1045695 158.087839,1 C158.087839,2.1045695 159.012806,3 160.15381,3 Z M31.0305825,6 C32.1715871,6 33.0965542,5.1045695 33.0965542,4 C33.0965542,2.8954305 32.1715871,2 31.0305825,2 C29.8895779,2 28.9646109,2.8954305 28.9646109,4 C28.9646109,5.1045695 29.8895779,6 31.0305825,6 Z M41.3604407,6 C42.5014454,6 43.4264124,5.1045695 43.4264124,4 C43.4264124,2.8954305 42.5014454,2 41.3604407,2 C40.2194361,2 39.2944691,2.8954305 39.2944691,4 C39.2944691,5.1045695 40.2194361,6 41.3604407,6 Z M51.690299,6 C52.8313036,6 53.7562706,5.1045695 53.7562706,4 C53.7562706,2.8954305 52.8313036,2 51.690299,2 C50.5492943,2 49.6243273,2.8954305 49.6243273,4 C49.6243273,5.1045695 50.5492943,6 51.690299,6 Z M62.0201572,6 C63.1611618,6 64.0861288,5.1045695 64.0861288,4 C64.0861288,2.8954305 63.1611618,2 62.0201572,2 C60.8791525,2 59.9541855,2.8954305 59.9541855,4 C59.9541855,5.1045695 60.8791525,6 62.0201572,6 Z M72.3500154,6 C73.49102,6 74.415987,5.1045695 74.415987,4 C74.415987,2.8954305 73.49102,2 72.3500154,2 C71.2090108,2 70.2840438,2.8954305 70.2840438,4 C70.2840438,5.1045695 71.2090108,6 72.3500154,6 Z M82.6798736,6 C83.8208783,6 84.7458453,5.1045695 84.7458453,4 C84.7458453,2.8954305 83.8208783,2 82.6798736,2 C81.538869,2 80.613902,2.8954305 80.613902,4 C80.613902,5.1045695 81.538869,6 82.6798736,6 Z M93.0097318,6 C94.1507365,6 95.0757035,5.1045695 95.0757035,4 C95.0757035,2.8954305 94.1507365,2 93.0097318,2 C91.8687272,2 90.9437602,2.8954305 90.9437602,4 C90.9437602,5.1045695 91.8687272,6 93.0097318,6 Z M103.33959,6 C104.480595,6 105.405562,5.1045695 105.405562,4 C105.405562,2.8954305 104.480595,2 103.33959,2 C102.198585,2 101.273618,2.8954305 101.273618,4 C101.273618,5.1045695 102.198585,6 103.33959,6 Z M113.669448,6 C114.810453,6 115.73542,5.1045695 115.73542,4 C115.73542,2.8954305 114.810453,2 113.669448,2 C112.528444,2 111.603477,2.8954305 111.603477,4 C111.603477,5.1045695 112.528444,6 113.669448,6 Z M123.999307,6 C125.140311,6 126.065278,5.1045695 126.065278,4 C126.065278,2.8954305 125.140311,2 123.999307,2 C122.858302,2 121.933335,2.8954305 121.933335,4 C121.933335,5.1045695 122.858302,6 123.999307,6 Z M134.329165,6 C135.470169,6 136.395136,5.1045695 136.395136,4 C136.395136,2.8954305 135.470169,2 134.329165,2 C133.18816,2 132.263193,2.8954305 132.263193,4 C132.263193,5.1045695 133.18816,6 134.329165,6 Z M144.659023,6 C145.800028,6 146.724995,5.1045695 146.724995,4 C146.724995,2.8954305 145.800028,2 144.659023,2 C143.518018,2 142.593051,2.8954305 142.593051,4 C142.593051,5.1045695 143.518018,6 144.659023,6 Z M154.988881,6 C156.129886,6 157.054853,5.1045695 157.054853,4 C157.054853,2.8954305 156.129886,2 154.988881,2 C153.847877,2 152.92291,2.8954305 152.92291,4 C152.92291,5.1045695 153.847877,6 154.988881,6 Z M25.8656534,9 C27.006658,9 27.931625,8.1045695 27.931625,7 C27.931625,5.8954305 27.006658,5 25.8656534,5 C24.7246488,5 23.7996818,5.8954305 23.7996818,7 C23.7996818,8.1045695 24.7246488,9 25.8656534,9 Z M36.1955116,9 C37.3365163,9 38.2614833,8.1045695 38.2614833,7 C38.2614833,5.8954305 37.3365163,5 36.1955116,5 C35.054507,5 34.12954,5.8954305 34.12954,7 C34.12954,8.1045695 35.054507,9 36.1955116,9 Z M46.5253698,9 C47.6663745,9 48.5913415,8.1045695 48.5913415,7 C48.5913415,5.8954305 47.6663745,5 46.5253698,5 C45.3843652,5 44.4593982,5.8954305 44.4593982,7 C44.4593982,8.1045695 45.3843652,9 46.5253698,9 Z M56.8552281,9 C57.9962327,9 58.9211997,8.1045695 58.9211997,7 C58.9211997,5.8954305 57.9962327,5 56.8552281,5 C55.7142234,5 54.7892564,5.8954305 54.7892564,7 C54.7892564,8.1045695 55.7142234,9 56.8552281,9 Z M67.1850863,9 C68.3260909,9 69.2510579,8.1045695 69.2510579,7 C69.2510579,5.8954305 68.3260909,5 67.1850863,5 C66.0440817,5 65.1191146,5.8954305 65.1191146,7 C65.1191146,8.1045695 66.0440817,9 67.1850863,9 Z M77.5149445,9 C78.6559491,9 79.5809162,8.1045695 79.5809162,7 C79.5809162,5.8954305 78.6559491,5 77.5149445,5 C76.3739399,5 75.4489729,5.8954305 75.4489729,7 C75.4489729,8.1045695 76.3739399,9 77.5149445,9 Z M87.8448027,9 C88.9858074,9 89.9107744,8.1045695 89.9107744,7 C89.9107744,5.8954305 88.9858074,5 87.8448027,5 C86.7037981,5 85.7788311,5.8954305 85.7788311,7 C85.7788311,8.1045695 86.7037981,9 87.8448027,9 Z M98.174661,9 C99.3156656,9 100.240633,8.1045695 100.240633,7 C100.240633,5.8954305 99.3156656,5 98.174661,5 C97.0336563,5 96.1086893,5.8954305 96.1086893,7 C96.1086893,8.1045695 97.0336563,9 98.174661,9 Z M108.504519,9 C109.645524,9 110.570491,8.1045695 110.570491,7 C110.570491,5.8954305 109.645524,5 108.504519,5 C107.363515,5 106.438548,5.8954305 106.438548,7 C106.438548,8.1045695 107.363515,9 108.504519,9 Z M118.834377,9 C119.975382,9 120.900349,8.1045695 120.900349,7 C120.900349,5.8954305 119.975382,5 118.834377,5 C117.693373,5 116.768406,5.8954305 116.768406,7 C116.768406,8.1045695 117.693373,9 118.834377,9 Z M129.164236,9 C130.30524,9 131.230207,8.1045695 131.230207,7 C131.230207,5.8954305 130.30524,5 129.164236,5 C128.023231,5 127.098264,5.8954305 127.098264,7 C127.098264,8.1045695 128.023231,9 129.164236,9 Z M139.494094,9 C140.635098,9 141.560065,8.1045695 141.560065,7 C141.560065,5.8954305 140.635098,5 139.494094,5 C138.353089,5 137.428122,5.8954305 137.428122,7 C137.428122,8.1045695 138.353089,9 139.494094,9 Z M149.823952,9 C150.964957,9 151.889924,8.1045695 151.889924,7 C151.889924,5.8954305 150.964957,5 149.823952,5 C148.682947,5 147.75798,5.8954305 147.75798,7 C147.75798,8.1045695 148.682947,9 149.823952,9 Z M160.15381,9 C161.294815,9 162.219782,8.1045695 162.219782,7 C162.219782,5.8954305 161.294815,5 160.15381,5 C159.012806,5 158.087839,5.8954305 158.087839,7 C158.087839,8.1045695 159.012806,9 160.15381,9 Z M31.0305825,12 C32.1715871,12 33.0965542,11.1045695 33.0965542,10 C33.0965542,8.8954305 32.1715871,8 31.0305825,8 C29.8895779,8 28.9646109,8.8954305 28.9646109,10 C28.9646109,11.1045695 29.8895779,12 31.0305825,12 Z M41.3604407,12 C42.5014454,12 43.4264124,11.1045695 43.4264124,10 C43.4264124,8.8954305 42.5014454,8 41.3604407,8 C40.2194361,8 39.2944691,8.8954305 39.2944691,10 C39.2944691,11.1045695 40.2194361,12 41.3604407,12 Z M51.690299,12 C52.8313036,12 53.7562706,11.1045695 53.7562706,10 C53.7562706,8.8954305 52.8313036,8 51.690299,8 C50.5492943,8 49.6243273,8.8954305 49.6243273,10 C49.6243273,11.1045695 50.5492943,12 51.690299,12 Z M62.0201572,12 C63.1611618,12 64.0861288,11.1045695 64.0861288,10 C64.0861288,8.8954305 63.1611618,8 62.0201572,8 C60.8791525,8 59.9541855,8.8954305 59.9541855,10 C59.9541855,11.1045695 60.8791525,12 62.0201572,12 Z M72.3500154,12 C73.49102,12 74.415987,11.1045695 74.415987,10 C74.415987,8.8954305 73.49102,8 72.3500154,8 C71.2090108,8 70.2840438,8.8954305 70.2840438,10 C70.2840438,11.1045695 71.2090108,12 72.3500154,12 Z M82.6798736,12 C83.8208783,12 84.7458453,11.1045695 84.7458453,10 C84.7458453,8.8954305 83.8208783,8 82.6798736,8 C81.538869,8 80.613902,8.8954305 80.613902,10 C80.613902,11.1045695 81.538869,12 82.6798736,12 Z M93.0097318,12 C94.1507365,12 95.0757035,11.1045695 95.0757035,10 C95.0757035,8.8954305 94.1507365,8 93.0097318,8 C91.8687272,8 90.9437602,8.8954305 90.9437602,10 C90.9437602,11.1045695 91.8687272,12 93.0097318,12 Z M103.33959,12 C104.480595,12 105.405562,11.1045695 105.405562,10 C105.405562,8.8954305 104.480595,8 103.33959,8 C102.198585,8 101.273618,8.8954305 101.273618,10 C101.273618,11.1045695 102.198585,12 103.33959,12 Z M113.669448,12 C114.810453,12 115.73542,11.1045695 115.73542,10 C115.73542,8.8954305 114.810453,8 113.669448,8 C112.528444,8 111.603477,8.8954305 111.603477,10 C111.603477,11.1045695 112.528444,12 113.669448,12 Z M123.999307,12 C125.140311,12 126.065278,11.1045695 126.065278,10 C126.065278,8.8954305 125.140311,8 123.999307,8 C122.858302,8 121.933335,8.8954305 121.933335,10 C121.933335,11.1045695 122.858302,12 123.999307,12 Z M134.329165,12 C135.470169,12 136.395136,11.1045695 136.395136,10 C136.395136,8.8954305 135.470169,8 134.329165,8 C133.18816,8 132.263193,8.8954305 132.263193,10 C132.263193,11.1045695 133.18816,12 134.329165,12 Z M144.659023,12 C145.800028,12 146.724995,11.1045695 146.724995,10 C146.724995,8.8954305 145.800028,8 144.659023,8 C143.518018,8 142.593051,8.8954305 142.593051,10 C142.593051,11.1045695 143.518018,12 144.659023,12 Z M154.988881,12 C156.129886,12 157.054853,11.1045695 157.054853,10 C157.054853,8.8954305 156.129886,8 154.988881,8 C153.847877,8 152.92291,8.8954305 152.92291,10 C152.92291,11.1045695 153.847877,12 154.988881,12 Z M25.8656534,15 C27.006658,15 27.931625,14.1045695 27.931625,13 C27.931625,11.8954305 27.006658,11 25.8656534,11 C24.7246488,11 23.7996818,11.8954305 23.7996818,13 C23.7996818,14.1045695 24.7246488,15 25.8656534,15 Z M36.1955116,15 C37.3365163,15 38.2614833,14.1045695 38.2614833,13 C38.2614833,11.8954305 37.3365163,11 36.1955116,11 C35.054507,11 34.12954,11.8954305 34.12954,13 C34.12954,14.1045695 35.054507,15 36.1955116,15 Z M46.5253698,15 C47.6663745,15 48.5913415,14.1045695 48.5913415,13 C48.5913415,11.8954305 47.6663745,11 46.5253698,11 C45.3843652,11 44.4593982,11.8954305 44.4593982,13 C44.4593982,14.1045695 45.3843652,15 46.5253698,15 Z M56.8552281,15 C57.9962327,15 58.9211997,14.1045695 58.9211997,13 C58.9211997,11.8954305 57.9962327,11 56.8552281,11 C55.7142234,11 54.7892564,11.8954305 54.7892564,13 C54.7892564,14.1045695 55.7142234,15 56.8552281,15 Z M67.1850863,15 C68.3260909,15 69.2510579,14.1045695 69.2510579,13 C69.2510579,11.8954305 68.3260909,11 67.1850863,11 C66.0440817,11 65.1191146,11.8954305 65.1191146,13 C65.1191146,14.1045695 66.0440817,15 67.1850863,15 Z M77.5149445,15 C78.6559491,15 79.5809162,14.1045695 79.5809162,13 C79.5809162,11.8954305 78.6559491,11 77.5149445,11 C76.3739399,11 75.4489729,11.8954305 75.4489729,13 C75.4489729,14.1045695 76.3739399,15 77.5149445,15 Z M87.8448027,15 C88.9858074,15 89.9107744,14.1045695 89.9107744,13 C89.9107744,11.8954305 88.9858074,11 87.8448027,11 C86.7037981,11 85.7788311,11.8954305 85.7788311,13 C85.7788311,14.1045695 86.7037981,15 87.8448027,15 Z M98.174661,15 C99.3156656,15 100.240633,14.1045695 100.240633,13 C100.240633,11.8954305 99.3156656,11 98.174661,11 C97.0336563,11 96.1086893,11.8954305 96.1086893,13 C96.1086893,14.1045695 97.0336563,15 98.174661,15 Z M108.504519,15 C109.645524,15 110.570491,14.1045695 110.570491,13 C110.570491,11.8954305 109.645524,11 108.504519,11 C107.363515,11 106.438548,11.8954305 106.438548,13 C106.438548,14.1045695 107.363515,15 108.504519,15 Z M118.834377,15 C119.975382,15 120.900349,14.1045695 120.900349,13 C120.900349,11.8954305 119.975382,11 118.834377,11 C117.693373,11 116.768406,11.8954305 116.768406,13 C116.768406,14.1045695 117.693373,15 118.834377,15 Z M129.164236,15 C130.30524,15 131.230207,14.1045695 131.230207,13 C131.230207,11.8954305 130.30524,11 129.164236,11 C128.023231,11 127.098264,11.8954305 127.098264,13 C127.098264,14.1045695 128.023231,15 129.164236,15 Z M139.494094,15 C140.635098,15 141.560065,14.1045695 141.560065,13 C141.560065,11.8954305 140.635098,11 139.494094,11 C138.353089,11 137.428122,11.8954305 137.428122,13 C137.428122,14.1045695 138.353089,15 139.494094,15 Z M149.823952,15 C150.964957,15 151.889924,14.1045695 151.889924,13 C151.889924,11.8954305 150.964957,11 149.823952,11 C148.682947,11 147.75798,11.8954305 147.75798,13 C147.75798,14.1045695 148.682947,15 149.823952,15 Z M160.15381,15 C161.294815,15 162.219782,14.1045695 162.219782,13 C162.219782,11.8954305 161.294815,11 160.15381,11 C159.012806,11 158.087839,11.8954305 158.087839,13 C158.087839,14.1045695 159.012806,15 160.15381,15 Z M62.0201572,18 C63.1611618,18 64.0861288,17.1045695 64.0861288,16 C64.0861288,14.8954305 63.1611618,14 62.0201572,14 C60.8791525,14 59.9541855,14.8954305 59.9541855,16 C59.9541855,17.1045695 60.8791525,18 62.0201572,18 Z M72.3500154,18 C73.49102,18 74.415987,17.1045695 74.415987,16 C74.415987,14.8954305 73.49102,14 72.3500154,14 C71.2090108,14 70.2840438,14.8954305 70.2840438,16 C70.2840438,17.1045695 71.2090108,18 72.3500154,18 Z M82.6798736,18 C83.8208783,18 84.7458453,17.1045695 84.7458453,16 C84.7458453,14.8954305 83.8208783,14 82.6798736,14 C81.538869,14 80.613902,14.8954305 80.613902,16 C80.613902,17.1045695 81.538869,18 82.6798736,18 Z M93.0097318,18 C94.1507365,18 95.0757035,17.1045695 95.0757035,16 C95.0757035,14.8954305 94.1507365,14 93.0097318,14 C91.8687272,14 90.9437602,14.8954305 90.9437602,16 C90.9437602,17.1045695 91.8687272,18 93.0097318,18 Z M103.33959,18 C104.480595,18 105.405562,17.1045695 105.405562,16 C105.405562,14.8954305 104.480595,14 103.33959,14 C102.198585,14 101.273618,14.8954305 101.273618,16 C101.273618,17.1045695 102.198585,18 103.33959,18 Z M113.669448,18 C114.810453,18 115.73542,17.1045695 115.73542,16 C115.73542,14.8954305 114.810453,14 113.669448,14 C112.528444,14 111.603477,14.8954305 111.603477,16 C111.603477,17.1045695 112.528444,18 113.669448,18 Z M154.988881,18 C156.129886,18 157.054853,17.1045695 157.054853,16 C157.054853,14.8954305 156.129886,14 154.988881,14 C153.847877,14 152.92291,14.8954305 152.92291,16 C152.92291,17.1045695 153.847877,18 154.988881,18 Z M77.5149445,21 C78.6559491,21 79.5809162,20.1045695 79.5809162,19 C79.5809162,17.8954305 78.6559491,17 77.5149445,17 C76.3739399,17 75.4489729,17.8954305 75.4489729,19 C75.4489729,20.1045695 76.3739399,21 77.5149445,21 Z M87.8448027,21 C88.9858074,21 89.9107744,20.1045695 89.9107744,19 C89.9107744,17.8954305 88.9858074,17 87.8448027,17 C86.7037981,17 85.7788311,17.8954305 85.7788311,19 C85.7788311,20.1045695 86.7037981,21 87.8448027,21 Z M160.15381,21 C161.294815,21 162.219782,20.1045695 162.219782,19 C162.219782,17.8954305 161.294815,17 160.15381,17 C159.012806,17 158.087839,17.8954305 158.087839,19 C158.087839,20.1045695 159.012806,21 160.15381,21 Z" fill="#FFFFFF" mask="url(#mask-2)"></path>
                </g>
            </g>
        </g>
    </g>
</svg>